<svg width="12" height="12" viewBox="0 0 12 12" fill="none" xmlns="http://www.w3.org/2000/svg">
<mask id="path-1-inside-1_239_311" fill="white">
<path d="M7.84 10C7.795 10 7.75 10 7.705 10C6.985 9.95494 6.22 9.68461 5.59 9.32415C4.195 8.60325 2.98 7.5219 2.125 6.17021C1.945 5.89987 1.765 5.62954 1.63 5.31414C1.225 4.6383 1 3.82728 1 3.06133C1.045 2.61076 1.27 2.1602 1.585 1.88986C2.125 1.34919 2.35 1.1239 2.62 1.03379C2.845 0.988736 3.025 0.988736 3.205 1.03379C3.565 1.07885 3.655 1.16896 4.33 1.84481C4.96 2.47559 5.005 2.52065 5.095 2.70088C5.23 2.97121 5.275 3.28661 5.14 3.55695C5.05 3.78223 4.96 3.9174 4.555 4.27785L4.33 4.50313C4.825 5.3592 5.59 6.0801 6.445 6.62078H6.49L6.715 6.39549C6.85 6.26032 7.03 6.0801 7.165 5.94493C7.525 5.71965 7.885 5.71965 8.245 5.89987C8.425 5.98999 8.47 6.03504 9.1 6.66583C9.775 7.29662 9.775 7.34168 9.865 7.5219C10.045 7.8373 10.045 8.19775 9.865 8.51314C9.775 8.69337 9.73 8.73842 9.37 9.09887C9.145 9.32415 8.92 9.54944 8.92 9.54944C8.605 9.86483 8.245 10 7.84 10ZM2.98 1.39424C2.935 1.39424 2.845 1.39424 2.755 1.4393C2.62 1.48436 2.485 1.61952 1.945 2.1602C1.63 2.38548 1.495 2.70088 1.45 3.06133C1.45 3.78223 1.63 4.50313 1.99 5.08886C2.125 5.40425 2.305 5.67459 2.485 5.94493C3.34 7.20651 4.465 8.2428 5.815 8.9637C6.4 9.32415 7.075 9.50438 7.75 9.59449C8.065 9.63955 8.425 9.50438 8.65 9.32415C8.695 9.2791 8.875 9.09887 9.1 8.87359C9.46 8.51314 9.505 8.46808 9.55 8.37797C9.64 8.19775 9.64 7.97247 9.55 7.79224C9.505 7.65707 9.505 7.65707 8.83 7.02628C8.2 6.39549 8.2 6.39549 8.11 6.35044C7.93 6.26033 7.705 6.26032 7.48 6.39549C7.345 6.48561 7.21 6.62078 7.075 6.75594L6.85 6.98123C6.715 7.11639 6.445 7.16145 6.265 7.07134C5.32 6.53066 4.51 5.71965 3.97 4.77347C3.88 4.54819 3.925 4.3229 4.015 4.18773L4.24 3.96245C4.6 3.602 4.645 3.51189 4.69 3.37672C4.78 3.24155 4.78 3.06133 4.69 2.8811C4.645 2.79099 4.555 2.70088 4.015 2.1602C3.34 1.48436 3.295 1.48436 3.16 1.4393C3.115 1.39424 3.07 1.39424 2.98 1.39424Z"/>
</mask>
<path d="M7.84 10C7.795 10 7.75 10 7.705 10C6.985 9.95494 6.22 9.68461 5.59 9.32415C4.195 8.60325 2.98 7.5219 2.125 6.17021C1.945 5.89987 1.765 5.62954 1.63 5.31414C1.225 4.6383 1 3.82728 1 3.06133C1.045 2.61076 1.27 2.1602 1.585 1.88986C2.125 1.34919 2.35 1.1239 2.62 1.03379C2.845 0.988736 3.025 0.988736 3.205 1.03379C3.565 1.07885 3.655 1.16896 4.33 1.84481C4.96 2.47559 5.005 2.52065 5.095 2.70088C5.23 2.97121 5.275 3.28661 5.14 3.55695C5.05 3.78223 4.96 3.9174 4.555 4.27785L4.33 4.50313C4.825 5.3592 5.59 6.0801 6.445 6.62078H6.49L6.715 6.39549C6.85 6.26032 7.03 6.0801 7.165 5.94493C7.525 5.71965 7.885 5.71965 8.245 5.89987C8.425 5.98999 8.47 6.03504 9.1 6.66583C9.775 7.29662 9.775 7.34168 9.865 7.5219C10.045 7.8373 10.045 8.19775 9.865 8.51314C9.775 8.69337 9.73 8.73842 9.37 9.09887C9.145 9.32415 8.92 9.54944 8.92 9.54944C8.605 9.86483 8.245 10 7.84 10ZM2.98 1.39424C2.935 1.39424 2.845 1.39424 2.755 1.4393C2.62 1.48436 2.485 1.61952 1.945 2.1602C1.63 2.38548 1.495 2.70088 1.45 3.06133C1.45 3.78223 1.63 4.50313 1.99 5.08886C2.125 5.40425 2.305 5.67459 2.485 5.94493C3.34 7.20651 4.465 8.2428 5.815 8.9637C6.4 9.32415 7.075 9.50438 7.75 9.59449C8.065 9.63955 8.425 9.50438 8.65 9.32415C8.695 9.2791 8.875 9.09887 9.1 8.87359C9.46 8.51314 9.505 8.46808 9.55 8.37797C9.64 8.19775 9.64 7.97247 9.55 7.79224C9.505 7.65707 9.505 7.65707 8.83 7.02628C8.2 6.39549 8.2 6.39549 8.11 6.35044C7.93 6.26033 7.705 6.26032 7.48 6.39549C7.345 6.48561 7.21 6.62078 7.075 6.75594L6.85 6.98123C6.715 7.11639 6.445 7.16145 6.265 7.07134C5.32 6.53066 4.51 5.71965 3.97 4.77347C3.88 4.54819 3.925 4.3229 4.015 4.18773L4.24 3.96245C4.6 3.602 4.645 3.51189 4.69 3.37672C4.78 3.24155 4.78 3.06133 4.69 2.8811C4.645 2.79099 4.555 2.70088 4.015 2.1602C3.34 1.48436 3.295 1.48436 3.16 1.4393C3.115 1.39424 3.07 1.39424 2.98 1.39424Z" fill="white"/>
<path d="M7.705 10L7.51763 12.9941L7.61122 13H7.705V10ZM5.59 9.32415L7.07982 6.72023L7.02421 6.68841L6.96729 6.659L5.59 9.32415ZM2.125 6.17021L4.66036 4.56649L4.64158 4.5368L4.62211 4.50755L2.125 6.17021ZM1.63 5.31414L4.38797 4.13363L4.30791 3.94659L4.20333 3.77207L1.63 5.31414ZM1 3.06133L-1.98515 2.76319L-2 2.91189V3.06133H1ZM1.585 1.88986L3.53878 4.16642L3.62622 4.09138L3.70765 4.00986L1.585 1.88986ZM2.62 1.03379L2.03094 -1.90781L1.84761 -1.87109L1.67025 -1.8119L2.62 1.03379ZM3.205 1.03379L2.47654 3.94401L2.65247 3.98804L2.83244 4.01057L3.205 1.03379ZM5.14 3.55695L2.45605 2.21665L2.40035 2.32819L2.35409 2.44397L5.14 3.55695ZM4.555 4.27785L2.56052 2.03686L2.49466 2.09547L2.43235 2.15785L4.555 4.27785ZM4.33 4.50313L2.20735 2.38314L0.580576 4.01195L1.73291 6.00483L4.33 4.50313ZM6.445 6.62078L4.84159 9.15634L5.57603 9.62078H6.445V6.62078ZM6.49 6.62078V9.62078H7.73374L8.61265 8.74077L6.49 6.62078ZM7.165 5.94493L5.57357 3.40183L5.28386 3.58313L5.04235 3.82494L7.165 5.94493ZM9.1 6.66583L6.97735 8.78583L7.0139 8.82241L7.05168 8.85772L9.1 6.66583ZM9.865 7.5219L7.18105 8.8622L7.21822 8.93665L7.25947 9.00892L9.865 7.5219ZM9.865 8.51314L7.25947 7.02613L7.21822 7.0984L7.18105 7.17284L9.865 8.51314ZM9.37 9.09887L11.4926 11.2189L9.37 9.09887ZM2.755 1.4393L3.70475 4.28499L3.90717 4.21744L4.09798 4.12191L2.755 1.4393ZM1.945 2.1602L3.69016 4.60037L3.89215 4.45591L4.06765 4.28019L1.945 2.1602ZM1.45 3.06133L-1.52689 2.68968L-1.55 2.87479V3.06133H1.45ZM1.99 5.08886L4.74797 3.90835L4.66125 3.70575L4.54585 3.51799L1.99 5.08886ZM2.485 5.94493L-0.0121108 7.60759L-0.00530005 7.61782L0.00159442 7.62799L2.485 5.94493ZM5.815 8.9637L7.38872 6.40961L7.30985 6.36101L7.22814 6.31738L5.815 8.9637ZM7.75 9.59449L8.17478 6.62472L8.16089 6.62273L8.14698 6.62087L7.75 9.59449ZM8.65 9.32415L10.5255 11.6656L10.6552 11.5617L10.7726 11.4441L8.65 9.32415ZM9.1 8.87359L11.2226 10.9936L9.1 8.87359ZM9.55 7.79224L6.70359 8.73986L6.77088 8.94196L6.86605 9.13254L9.55 7.79224ZM8.83 7.02628L6.70735 9.14628L6.7439 9.18286L6.78168 9.21817L8.83 7.02628ZM7.48 6.39549L5.93509 3.82387L5.87387 3.86065L5.81446 3.9003L7.48 6.39549ZM6.265 7.07134L4.77518 9.67527L4.84751 9.71665L4.92202 9.75395L6.265 7.07134ZM3.97 4.77347L1.18409 5.88644L1.2613 6.07972L1.36447 6.26048L3.97 4.77347ZM4.015 4.18773L1.89235 2.06774L1.68248 2.27787L1.51789 2.52508L4.015 4.18773ZM4.24 3.96245L6.36265 6.08245L4.24 3.96245ZM4.69 3.37672L2.19289 1.71406L1.9704 2.04821L1.84359 2.42911L4.69 3.37672ZM3.16 1.4393L1.03735 3.55929L1.5381 4.06066L2.21025 4.28499L3.16 1.4393ZM7.84 7C7.83991 7 7.83982 7 7.83974 7C7.83965 7 7.83956 7 7.83947 7C7.83938 7 7.8393 7 7.83921 7C7.83912 7 7.83903 7 7.83894 7C7.83886 7 7.83877 7 7.83868 7C7.83859 7 7.83851 7 7.83842 7C7.83833 7 7.83824 7 7.83815 7C7.83807 7 7.83798 7 7.83789 7C7.8378 7 7.83771 7 7.83763 7C7.83754 7 7.83745 7 7.83736 7C7.83727 7 7.83719 7 7.8371 7C7.83701 7 7.83692 7 7.83684 7C7.83675 7 7.83666 7 7.83657 7C7.83648 7 7.8364 7 7.83631 7C7.83622 7 7.83613 7 7.83604 7C7.83596 7 7.83587 7 7.83578 7C7.83569 7 7.8356 7 7.83552 7C7.83543 7 7.83534 7 7.83525 7C7.83517 7 7.83508 7 7.83499 7C7.8349 7 7.83481 7 7.83473 7C7.83464 7 7.83455 7 7.83446 7C7.83437 7 7.83429 7 7.8342 7C7.83411 7 7.83402 7 7.83393 7C7.83385 7 7.83376 7 7.83367 7C7.83358 7 7.8335 7 7.83341 7C7.83332 7 7.83323 7 7.83314 7C7.83306 7 7.83297 7 7.83288 7C7.83279 7 7.8327 7 7.83262 7C7.83253 7 7.83244 7 7.83235 7C7.83226 7 7.83218 7 7.83209 7C7.832 7 7.83191 7 7.83183 7C7.83174 7 7.83165 7 7.83156 7C7.83147 7 7.83139 7 7.8313 7C7.83121 7 7.83112 7 7.83103 7C7.83095 7 7.83086 7 7.83077 7C7.83068 7 7.8306 7 7.83051 7C7.83042 7 7.83033 7 7.83024 7C7.83016 7 7.83007 7 7.82998 7C7.82989 7 7.8298 7 7.82972 7C7.82963 7 7.82954 7 7.82945 7C7.82936 7 7.82928 7 7.82919 7C7.8291 7 7.82901 7 7.82893 7C7.82884 7 7.82875 7 7.82866 7C7.82857 7 7.82849 7 7.8284 7C7.82831 7 7.82822 7 7.82813 7C7.82805 7 7.82796 7 7.82787 7C7.82778 7 7.82769 7 7.82761 7C7.82752 7 7.82743 7 7.82734 7C7.82726 7 7.82717 7 7.82708 7C7.82699 7 7.8269 7 7.82682 7C7.82673 7 7.82664 7 7.82655 7C7.82646 7 7.82638 7 7.82629 7C7.8262 7 7.82611 7 7.82602 7C7.82594 7 7.82585 7 7.82576 7C7.82567 7 7.82559 7 7.8255 7C7.82541 7 7.82532 7 7.82523 7C7.82515 7 7.82506 7 7.82497 7C7.82488 7 7.82479 7 7.82471 7C7.82462 7 7.82453 7 7.82444 7C7.82435 7 7.82427 7 7.82418 7C7.82409 7 7.824 7 7.82392 7C7.82383 7 7.82374 7 7.82365 7C7.82356 7 7.82348 7 7.82339 7C7.8233 7 7.82321 7 7.82312 7C7.82304 7 7.82295 7 7.82286 7C7.82277 7 7.82268 7 7.8226 7C7.82251 7 7.82242 7 7.82233 7C7.82225 7 7.82216 7 7.82207 7C7.82198 7 7.82189 7 7.82181 7C7.82172 7 7.82163 7 7.82154 7C7.82145 7 7.82137 7 7.82128 7C7.82119 7 7.8211 7 7.82101 7C7.82093 7 7.82084 7 7.82075 7C7.82066 7 7.82058 7 7.82049 7C7.8204 7 7.82031 7 7.82022 7C7.82014 7 7.82005 7 7.81996 7C7.81987 7 7.81978 7 7.8197 7C7.81961 7 7.81952 7 7.81943 7C7.81934 7 7.81926 7 7.81917 7C7.81908 7 7.81899 7 7.81891 7C7.81882 7 7.81873 7 7.81864 7C7.81855 7 7.81847 7 7.81838 7C7.81829 7 7.8182 7 7.81811 7C7.81803 7 7.81794 7 7.81785 7C7.81776 7 7.81768 7 7.81759 7C7.8175 7 7.81741 7 7.81732 7C7.81724 7 7.81715 7 7.81706 7C7.81697 7 7.81688 7 7.8168 7C7.81671 7 7.81662 7 7.81653 7C7.81644 7 7.81636 7 7.81627 7C7.81618 7 7.81609 7 7.81601 7C7.81592 7 7.81583 7 7.81574 7C7.81565 7 7.81557 7 7.81548 7C7.81539 7 7.8153 7 7.81521 7C7.81513 7 7.81504 7 7.81495 7C7.81486 7 7.81477 7 7.81469 7C7.8146 7 7.81451 7 7.81442 7C7.81434 7 7.81425 7 7.81416 7C7.81407 7 7.81398 7 7.8139 7C7.81381 7 7.81372 7 7.81363 7C7.81354 7 7.81346 7 7.81337 7C7.81328 7 7.81319 7 7.8131 7C7.81302 7 7.81293 7 7.81284 7C7.81275 7 7.81267 7 7.81258 7C7.81249 7 7.8124 7 7.81231 7C7.81223 7 7.81214 7 7.81205 7C7.81196 7 7.81187 7 7.81179 7C7.8117 7 7.81161 7 7.81152 7C7.81143 7 7.81135 7 7.81126 7C7.81117 7 7.81108 7 7.811 7C7.81091 7 7.81082 7 7.81073 7C7.81064 7 7.81056 7 7.81047 7C7.81038 7 7.81029 7 7.8102 7C7.81012 7 7.81003 7 7.80994 7C7.80985 7 7.80976 7 7.80968 7C7.80959 7 7.8095 7 7.80941 7C7.80933 7 7.80924 7 7.80915 7C7.80906 7 7.80897 7 7.80889 7C7.8088 7 7.80871 7 7.80862 7C7.80853 7 7.80845 7 7.80836 7C7.80827 7 7.80818 7 7.80809 7C7.80801 7 7.80792 7 7.80783 7C7.80774 7 7.80766 7 7.80757 7C7.80748 7 7.80739 7 7.8073 7C7.80722 7 7.80713 7 7.80704 7C7.80695 7 7.80686 7 7.80678 7C7.80669 7 7.8066 7 7.80651 7C7.80643 7 7.80634 7 7.80625 7C7.80616 7 7.80607 7 7.80599 7C7.8059 7 7.80581 7 7.80572 7C7.80563 7 7.80555 7 7.80546 7C7.80537 7 7.80528 7 7.80519 7C7.80511 7 7.80502 7 7.80493 7C7.80484 7 7.80476 7 7.80467 7C7.80458 7 7.80449 7 7.8044 7C7.80432 7 7.80423 7 7.80414 7C7.80405 7 7.80396 7 7.80388 7C7.80379 7 7.8037 7 7.80361 7C7.80352 7 7.80344 7 7.80335 7C7.80326 7 7.80317 7 7.80309 7C7.803 7 7.80291 7 7.80282 7C7.80273 7 7.80265 7 7.80256 7C7.80247 7 7.80238 7 7.80229 7C7.80221 7 7.80212 7 7.80203 7C7.80194 7 7.80185 7 7.80177 7C7.80168 7 7.80159 7 7.8015 7C7.80142 7 7.80133 7 7.80124 7C7.80115 7 7.80106 7 7.80098 7C7.80089 7 7.8008 7 7.80071 7C7.80062 7 7.80054 7 7.80045 7C7.80036 7 7.80027 7 7.80018 7C7.8001 7 7.80001 7 7.79992 7C7.79983 7 7.79975 7 7.79966 7C7.79957 7 7.79948 7 7.79939 7C7.79931 7 7.79922 7 7.79913 7C7.79904 7 7.79895 7 7.79887 7C7.79878 7 7.79869 7 7.7986 7C7.79851 7 7.79843 7 7.79834 7C7.79825 7 7.79816 7 7.79808 7C7.79799 7 7.7979 7 7.79781 7C7.79772 7 7.79764 7 7.79755 7C7.79746 7 7.79737 7 7.79728 7C7.7972 7 7.79711 7 7.79702 7C7.79693 7 7.79684 7 7.79676 7C7.79667 7 7.79658 7 7.79649 7C7.79641 7 7.79632 7 7.79623 7C7.79614 7 7.79605 7 7.79597 7C7.79588 7 7.79579 7 7.7957 7C7.79561 7 7.79553 7 7.79544 7C7.79535 7 7.79526 7 7.79518 7C7.79509 7 7.795 7 7.79491 7C7.79482 7 7.79474 7 7.79465 7C7.79456 7 7.79447 7 7.79438 7C7.7943 7 7.79421 7 7.79412 7C7.79403 7 7.79394 7 7.79386 7C7.79377 7 7.79368 7 7.79359 7C7.79351 7 7.79342 7 7.79333 7C7.79324 7 7.79315 7 7.79307 7C7.79298 7 7.79289 7 7.7928 7C7.79271 7 7.79263 7 7.79254 7C7.79245 7 7.79236 7 7.79227 7C7.79219 7 7.7921 7 7.79201 7C7.79192 7 7.79184 7 7.79175 7C7.79166 7 7.79157 7 7.79148 7C7.7914 7 7.79131 7 7.79122 7C7.79113 7 7.79104 7 7.79096 7C7.79087 7 7.79078 7 7.79069 7C7.79061 7 7.79052 7 7.79043 7C7.79034 7 7.79025 7 7.79017 7C7.79008 7 7.78999 7 7.7899 7C7.78981 7 7.78973 7 7.78964 7C7.78955 7 7.78946 7 7.78937 7C7.78929 7 7.7892 7 7.78911 7C7.78902 7 7.78894 7 7.78885 7C7.78876 7 7.78867 7 7.78858 7C7.7885 7 7.78841 7 7.78832 7C7.78823 7 7.78814 7 7.78806 7C7.78797 7 7.78788 7 7.78779 7C7.7877 7 7.78762 7 7.78753 7C7.78744 7 7.78735 7 7.78726 7C7.78718 7 7.78709 7 7.787 7C7.78691 7 7.78683 7 7.78674 7C7.78665 7 7.78656 7 7.78647 7C7.78639 7 7.7863 7 7.78621 7C7.78612 7 7.78603 7 7.78595 7C7.78586 7 7.78577 7 7.78568 7C7.78559 7 7.78551 7 7.78542 7C7.78533 7 7.78524 7 7.78516 7C7.78507 7 7.78498 7 7.78489 7C7.7848 7 7.78472 7 7.78463 7C7.78454 7 7.78445 7 7.78436 7C7.78428 7 7.78419 7 7.7841 7C7.78401 7 7.78393 7 7.78384 7C7.78375 7 7.78366 7 7.78357 7C7.78349 7 7.7834 7 7.78331 7C7.78322 7 7.78313 7 7.78305 7C7.78296 7 7.78287 7 7.78278 7C7.78269 7 7.78261 7 7.78252 7C7.78243 7 7.78234 7 7.78226 7C7.78217 7 7.78208 7 7.78199 7C7.7819 7 7.78182 7 7.78173 7C7.78164 7 7.78155 7 7.78146 7C7.78138 7 7.78129 7 7.7812 7C7.78111 7 7.78102 7 7.78094 7C7.78085 7 7.78076 7 7.78067 7C7.78059 7 7.7805 7 7.78041 7C7.78032 7 7.78023 7 7.78015 7C7.78006 7 7.77997 7 7.77988 7C7.77979 7 7.77971 7 7.77962 7C7.77953 7 7.77944 7 7.77936 7C7.77927 7 7.77918 7 7.77909 7C7.779 7 7.77892 7 7.77883 7C7.77874 7 7.77865 7 7.77856 7C7.77848 7 7.77839 7 7.7783 7C7.77821 7 7.77812 7 7.77804 7C7.77795 7 7.77786 7 7.77777 7C7.77769 7 7.7776 7 7.77751 7C7.77742 7 7.77733 7 7.77725 7C7.77716 7 7.77707 7 7.77698 7C7.77689 7 7.77681 7 7.77672 7C7.77663 7 7.77654 7 7.77645 7C7.77637 7 7.77628 7 7.77619 7C7.7761 7 7.77602 7 7.77593 7C7.77584 7 7.77575 7 7.77566 7C7.77558 7 7.77549 7 7.7754 7C7.77531 7 7.77522 7 7.77514 7C7.77505 7 7.77496 7 7.77487 7C7.77478 7 7.7747 7 7.77461 7C7.77452 7 7.77443 7 7.77435 7C7.77426 7 7.77417 7 7.77408 7C7.77399 7 7.77391 7 7.77382 7C7.77373 7 7.77364 7 7.77355 7C7.77347 7 7.77338 7 7.77329 7C7.7732 7 7.77311 7 7.77303 7C7.77294 7 7.77285 7 7.77276 7C7.77268 7 7.77259 7 7.7725 7C7.77241 7 7.77232 7 7.77224 7C7.77215 7 7.77206 7 7.77197 7C7.77188 7 7.7718 7 7.77171 7C7.77162 7 7.77153 7 7.77144 7C7.77136 7 7.77127 7 7.77118 7C7.77109 7 7.77101 7 7.77092 7C7.77083 7 7.77074 7 7.77065 7C7.77057 7 7.77048 7 7.77039 7C7.7703 7 7.77021 7 7.77013 7C7.77004 7 7.76995 7 7.76986 7C7.76977 7 7.76969 7 7.7696 7C7.76951 7 7.76942 7 7.76934 7C7.76925 7 7.76916 7 7.76907 7C7.76898 7 7.7689 7 7.76881 7C7.76872 7 7.76863 7 7.76854 7C7.76846 7 7.76837 7 7.76828 7C7.76819 7 7.76811 7 7.76802 7C7.76793 7 7.76784 7 7.76775 7C7.76767 7 7.76758 7 7.76749 7C7.7674 7 7.76731 7 7.76723 7C7.76714 7 7.76705 7 7.76696 7C7.76687 7 7.76679 7 7.7667 7C7.76661 7 7.76652 7 7.76644 7C7.76635 7 7.76626 7 7.76617 7C7.76608 7 7.766 7 7.76591 7C7.76582 7 7.76573 7 7.76564 7C7.76556 7 7.76547 7 7.76538 7C7.76529 7 7.7652 7 7.76512 7C7.76503 7 7.76494 7 7.76485 7C7.76477 7 7.76468 7 7.76459 7C7.7645 7 7.76441 7 7.76433 7C7.76424 7 7.76415 7 7.76406 7C7.76397 7 7.76389 7 7.7638 7C7.76371 7 7.76362 7 7.76353 7C7.76345 7 7.76336 7 7.76327 7C7.76318 7 7.7631 7 7.76301 7C7.76292 7 7.76283 7 7.76274 7C7.76266 7 7.76257 7 7.76248 7C7.76239 7 7.7623 7 7.76222 7C7.76213 7 7.76204 7 7.76195 7C7.76186 7 7.76178 7 7.76169 7C7.7616 7 7.76151 7 7.76143 7C7.76134 7 7.76125 7 7.76116 7C7.76107 7 7.76099 7 7.7609 7C7.76081 7 7.76072 7 7.76063 7C7.76055 7 7.76046 7 7.76037 7C7.76028 7 7.76019 7 7.76011 7C7.76002 7 7.75993 7 7.75984 7C7.75976 7 7.75967 7 7.75958 7C7.75949 7 7.7594 7 7.75932 7C7.75923 7 7.75914 7 7.75905 7C7.75896 7 7.75888 7 7.75879 7C7.7587 7 7.75861 7 7.75852 7C7.75844 7 7.75835 7 7.75826 7C7.75817 7 7.75809 7 7.758 7C7.75791 7 7.75782 7 7.75773 7C7.75765 7 7.75756 7 7.75747 7C7.75738 7 7.75729 7 7.75721 7C7.75712 7 7.75703 7 7.75694 7C7.75686 7 7.75677 7 7.75668 7C7.75659 7 7.7565 7 7.75642 7C7.75633 7 7.75624 7 7.75615 7C7.75606 7 7.75598 7 7.75589 7C7.7558 7 7.75571 7 7.75562 7C7.75554 7 7.75545 7 7.75536 7C7.75527 7 7.75519 7 7.7551 7C7.75501 7 7.75492 7 7.75483 7C7.75475 7 7.75466 7 7.75457 7C7.75448 7 7.75439 7 7.75431 7C7.75422 7 7.75413 7 7.75404 7C7.75395 7 7.75387 7 7.75378 7C7.75369 7 7.7536 7 7.75352 7C7.75343 7 7.75334 7 7.75325 7C7.75316 7 7.75308 7 7.75299 7C7.7529 7 7.75281 7 7.75272 7C7.75264 7 7.75255 7 7.75246 7C7.75237 7 7.75228 7 7.7522 7C7.75211 7 7.75202 7 7.75193 7C7.75185 7 7.75176 7 7.75167 7C7.75158 7 7.75149 7 7.75141 7C7.75132 7 7.75123 7 7.75114 7C7.75105 7 7.75097 7 7.75088 7C7.75079 7 7.7507 7 7.75061 7C7.75053 7 7.75044 7 7.75035 7C7.75026 7 7.75018 7 7.75009 7C7.75 7 7.74991 7 7.74982 7C7.74974 7 7.74965 7 7.74956 7C7.74947 7 7.74938 7 7.7493 7C7.74921 7 7.74912 7 7.74903 7C7.74894 7 7.74886 7 7.74877 7C7.74868 7 7.74859 7 7.74851 7C7.74842 7 7.74833 7 7.74824 7C7.74815 7 7.74807 7 7.74798 7C7.74789 7 7.7478 7 7.74771 7C7.74763 7 7.74754 7 7.74745 7C7.74736 7 7.74727 7 7.74719 7C7.7471 7 7.74701 7 7.74692 7C7.74684 7 7.74675 7 7.74666 7C7.74657 7 7.74648 7 7.7464 7C7.74631 7 7.74622 7 7.74613 7C7.74604 7 7.74596 7 7.74587 7C7.74578 7 7.74569 7 7.7456 7C7.74552 7 7.74543 7 7.74534 7C7.74525 7 7.74517 7 7.74508 7C7.74499 7 7.7449 7 7.74481 7C7.74473 7 7.74464 7 7.74455 7C7.74446 7 7.74437 7 7.74429 7C7.7442 7 7.74411 7 7.74402 7C7.74394 7 7.74385 7 7.74376 7C7.74367 7 7.74358 7 7.7435 7C7.74341 7 7.74332 7 7.74323 7C7.74314 7 7.74306 7 7.74297 7C7.74288 7 7.74279 7 7.7427 7C7.74262 7 7.74253 7 7.74244 7C7.74235 7 7.74227 7 7.74218 7C7.74209 7 7.742 7 7.74191 7C7.74183 7 7.74174 7 7.74165 7C7.74156 7 7.74147 7 7.74139 7C7.7413 7 7.74121 7 7.74112 7C7.74103 7 7.74095 7 7.74086 7C7.74077 7 7.74068 7 7.7406 7C7.74051 7 7.74042 7 7.74033 7C7.74024 7 7.74016 7 7.74007 7C7.73998 7 7.73989 7 7.7398 7C7.73972 7 7.73963 7 7.73954 7C7.73945 7 7.73936 7 7.73928 7C7.73919 7 7.7391 7 7.73901 7C7.73893 7 7.73884 7 7.73875 7C7.73866 7 7.73857 7 7.73849 7C7.7384 7 7.73831 7 7.73822 7C7.73813 7 7.73805 7 7.73796 7C7.73787 7 7.73778 7 7.73769 7C7.73761 7 7.73752 7 7.73743 7C7.73734 7 7.73726 7 7.73717 7C7.73708 7 7.73699 7 7.7369 7C7.73682 7 7.73673 7 7.73664 7C7.73655 7 7.73646 7 7.73638 7C7.73629 7 7.7362 7 7.73611 7C7.73602 7 7.73594 7 7.73585 7C7.73576 7 7.73567 7 7.73559 7C7.7355 7 7.73541 7 7.73532 7C7.73523 7 7.73515 7 7.73506 7C7.73497 7 7.73488 7 7.73479 7C7.73471 7 7.73462 7 7.73453 7C7.73444 7 7.73435 7 7.73427 7C7.73418 7 7.73409 7 7.734 7C7.73392 7 7.73383 7 7.73374 7C7.73365 7 7.73356 7 7.73348 7C7.73339 7 7.7333 7 7.73321 7C7.73312 7 7.73304 7 7.73295 7C7.73286 7 7.73277 7 7.73269 7C7.7326 7 7.73251 7 7.73242 7C7.73233 7 7.73225 7 7.73216 7C7.73207 7 7.73198 7 7.73189 7C7.73181 7 7.73172 7 7.73163 7C7.73154 7 7.73145 7 7.73137 7C7.73128 7 7.73119 7 7.7311 7C7.73102 7 7.73093 7 7.73084 7C7.73075 7 7.73066 7 7.73058 7C7.73049 7 7.7304 7 7.73031 7C7.73022 7 7.73014 7 7.73005 7C7.72996 7 7.72987 7 7.72978 7C7.7297 7 7.72961 7 7.72952 7C7.72943 7 7.72935 7 7.72926 7C7.72917 7 7.72908 7 7.72899 7C7.72891 7 7.72882 7 7.72873 7C7.72864 7 7.72855 7 7.72847 7C7.72838 7 7.72829 7 7.7282 7C7.72812 7 7.72803 7 7.72794 7C7.72785 7 7.72776 7 7.72768 7C7.72759 7 7.7275 7 7.72741 7C7.72732 7 7.72724 7 7.72715 7C7.72706 7 7.72697 7 7.72688 7C7.7268 7 7.72671 7 7.72662 7C7.72653 7 7.72644 7 7.72636 7C7.72627 7 7.72618 7 7.72609 7C7.72601 7 7.72592 7 7.72583 7C7.72574 7 7.72565 7 7.72557 7C7.72548 7 7.72539 7 7.7253 7C7.72521 7 7.72513 7 7.72504 7C7.72495 7 7.72486 7 7.72477 7C7.72469 7 7.7246 7 7.72451 7C7.72442 7 7.72434 7 7.72425 7C7.72416 7 7.72407 7 7.72398 7C7.7239 7 7.72381 7 7.72372 7C7.72363 7 7.72354 7 7.72346 7C7.72337 7 7.72328 7 7.72319 7C7.7231 7 7.72302 7 7.72293 7C7.72284 7 7.72275 7 7.72267 7C7.72258 7 7.72249 7 7.7224 7C7.72231 7 7.72223 7 7.72214 7C7.72205 7 7.72196 7 7.72187 7C7.72179 7 7.7217 7 7.72161 7C7.72152 7 7.72144 7 7.72135 7C7.72126 7 7.72117 7 7.72108 7C7.721 7 7.72091 7 7.72082 7C7.72073 7 7.72064 7 7.72056 7C7.72047 7 7.72038 7 7.72029 7C7.7202 7 7.72012 7 7.72003 7C7.71994 7 7.71985 7 7.71977 7C7.71968 7 7.71959 7 7.7195 7C7.71941 7 7.71933 7 7.71924 7C7.71915 7 7.71906 7 7.71897 7C7.71889 7 7.7188 7 7.71871 7C7.71862 7 7.71853 7 7.71845 7C7.71836 7 7.71827 7 7.71818 7C7.7181 7 7.71801 7 7.71792 7C7.71783 7 7.71774 7 7.71766 7C7.71757 7 7.71748 7 7.71739 7C7.7173 7 7.71722 7 7.71713 7C7.71704 7 7.71695 7 7.71687 7C7.71678 7 7.71669 7 7.7166 7C7.71651 7 7.71643 7 7.71634 7C7.71625 7 7.71616 7 7.71607 7C7.71599 7 7.7159 7 7.71581 7C7.71572 7 7.71563 7 7.71555 7C7.71546 7 7.71537 7 7.71528 7C7.7152 7 7.71511 7 7.71502 7C7.71493 7 7.71484 7 7.71476 7C7.71467 7 7.71458 7 7.71449 7C7.7144 7 7.71432 7 7.71423 7C7.71414 7 7.71405 7 7.71396 7C7.71388 7 7.71379 7 7.7137 7C7.71361 7 7.71352 7 7.71344 7C7.71335 7 7.71326 7 7.71317 7C7.71309 7 7.713 7 7.71291 7C7.71282 7 7.71273 7 7.71265 7C7.71256 7 7.71247 7 7.71238 7C7.71229 7 7.71221 7 7.71212 7C7.71203 7 7.71194 7 7.71185 7C7.71177 7 7.71168 7 7.71159 7C7.7115 7 7.71142 7 7.71133 7C7.71124 7 7.71115 7 7.71106 7C7.71098 7 7.71089 7 7.7108 7C7.71071 7 7.71062 7 7.71054 7C7.71045 7 7.71036 7 7.71027 7C7.71019 7 7.7101 7 7.71001 7C7.70992 7 7.70983 7 7.70975 7C7.70966 7 7.70957 7 7.70948 7C7.70939 7 7.70931 7 7.70922 7C7.70913 7 7.70904 7 7.70895 7C7.70887 7 7.70878 7 7.70869 7C7.7086 7 7.70852 7 7.70843 7C7.70834 7 7.70825 7 7.70816 7C7.70808 7 7.70799 7 7.7079 7C7.70781 7 7.70772 7 7.70764 7C7.70755 7 7.70746 7 7.70737 7C7.70728 7 7.7072 7 7.70711 7C7.70702 7 7.70693 7 7.70685 7C7.70676 7 7.70667 7 7.70658 7C7.70649 7 7.70641 7 7.70632 7C7.70623 7 7.70614 7 7.70605 7C7.70597 7 7.70588 7 7.70579 7C7.7057 7 7.70562 7 7.70553 7C7.70544 7 7.70535 7 7.70526 7C7.70518 7 7.70509 7 7.705 7V13C7.70509 13 7.70518 13 7.70526 13C7.70535 13 7.70544 13 7.70553 13C7.70562 13 7.7057 13 7.70579 13C7.70588 13 7.70597 13 7.70605 13C7.70614 13 7.70623 13 7.70632 13C7.70641 13 7.70649 13 7.70658 13C7.70667 13 7.70676 13 7.70685 13C7.70693 13 7.70702 13 7.70711 13C7.7072 13 7.70728 13 7.70737 13C7.70746 13 7.70755 13 7.70764 13C7.70772 13 7.70781 13 7.7079 13C7.70799 13 7.70808 13 7.70816 13C7.70825 13 7.70834 13 7.70843 13C7.70852 13 7.7086 13 7.70869 13C7.70878 13 7.70887 13 7.70895 13C7.70904 13 7.70913 13 7.70922 13C7.70931 13 7.70939 13 7.70948 13C7.70957 13 7.70966 13 7.70975 13C7.70983 13 7.70992 13 7.71001 13C7.7101 13 7.71019 13 7.71027 13C7.71036 13 7.71045 13 7.71054 13C7.71062 13 7.71071 13 7.7108 13C7.71089 13 7.71098 13 7.71106 13C7.71115 13 7.71124 13 7.71133 13C7.71142 13 7.7115 13 7.71159 13C7.71168 13 7.71177 13 7.71185 13C7.71194 13 7.71203 13 7.71212 13C7.71221 13 7.71229 13 7.71238 13C7.71247 13 7.71256 13 7.71265 13C7.71273 13 7.71282 13 7.71291 13C7.713 13 7.71309 13 7.71317 13C7.71326 13 7.71335 13 7.71344 13C7.71352 13 7.71361 13 7.7137 13C7.71379 13 7.71388 13 7.71396 13C7.71405 13 7.71414 13 7.71423 13C7.71432 13 7.7144 13 7.71449 13C7.71458 13 7.71467 13 7.71476 13C7.71484 13 7.71493 13 7.71502 13C7.71511 13 7.7152 13 7.71528 13C7.71537 13 7.71546 13 7.71555 13C7.71563 13 7.71572 13 7.71581 13C7.7159 13 7.71599 13 7.71607 13C7.71616 13 7.71625 13 7.71634 13C7.71643 13 7.71651 13 7.7166 13C7.71669 13 7.71678 13 7.71687 13C7.71695 13 7.71704 13 7.71713 13C7.71722 13 7.7173 13 7.71739 13C7.71748 13 7.71757 13 7.71766 13C7.71774 13 7.71783 13 7.71792 13C7.71801 13 7.7181 13 7.71818 13C7.71827 13 7.71836 13 7.71845 13C7.71853 13 7.71862 13 7.71871 13C7.7188 13 7.71889 13 7.71897 13C7.71906 13 7.71915 13 7.71924 13C7.71933 13 7.71941 13 7.7195 13C7.71959 13 7.71968 13 7.71977 13C7.71985 13 7.71994 13 7.72003 13C7.72012 13 7.7202 13 7.72029 13C7.72038 13 7.72047 13 7.72056 13C7.72064 13 7.72073 13 7.72082 13C7.72091 13 7.721 13 7.72108 13C7.72117 13 7.72126 13 7.72135 13C7.72144 13 7.72152 13 7.72161 13C7.7217 13 7.72179 13 7.72187 13C7.72196 13 7.72205 13 7.72214 13C7.72223 13 7.72231 13 7.7224 13C7.72249 13 7.72258 13 7.72267 13C7.72275 13 7.72284 13 7.72293 13C7.72302 13 7.7231 13 7.72319 13C7.72328 13 7.72337 13 7.72346 13C7.72354 13 7.72363 13 7.72372 13C7.72381 13 7.7239 13 7.72398 13C7.72407 13 7.72416 13 7.72425 13C7.72434 13 7.72442 13 7.72451 13C7.7246 13 7.72469 13 7.72477 13C7.72486 13 7.72495 13 7.72504 13C7.72513 13 7.72521 13 7.7253 13C7.72539 13 7.72548 13 7.72557 13C7.72565 13 7.72574 13 7.72583 13C7.72592 13 7.72601 13 7.72609 13C7.72618 13 7.72627 13 7.72636 13C7.72644 13 7.72653 13 7.72662 13C7.72671 13 7.7268 13 7.72688 13C7.72697 13 7.72706 13 7.72715 13C7.72724 13 7.72732 13 7.72741 13C7.7275 13 7.72759 13 7.72768 13C7.72776 13 7.72785 13 7.72794 13C7.72803 13 7.72812 13 7.7282 13C7.72829 13 7.72838 13 7.72847 13C7.72855 13 7.72864 13 7.72873 13C7.72882 13 7.72891 13 7.72899 13C7.72908 13 7.72917 13 7.72926 13C7.72935 13 7.72943 13 7.72952 13C7.72961 13 7.7297 13 7.72978 13C7.72987 13 7.72996 13 7.73005 13C7.73014 13 7.73022 13 7.73031 13C7.7304 13 7.73049 13 7.73058 13C7.73066 13 7.73075 13 7.73084 13C7.73093 13 7.73102 13 7.7311 13C7.73119 13 7.73128 13 7.73137 13C7.73145 13 7.73154 13 7.73163 13C7.73172 13 7.73181 13 7.73189 13C7.73198 13 7.73207 13 7.73216 13C7.73225 13 7.73233 13 7.73242 13C7.73251 13 7.7326 13 7.73269 13C7.73277 13 7.73286 13 7.73295 13C7.73304 13 7.73312 13 7.73321 13C7.7333 13 7.73339 13 7.73348 13C7.73356 13 7.73365 13 7.73374 13C7.73383 13 7.73392 13 7.734 13C7.73409 13 7.73418 13 7.73427 13C7.73435 13 7.73444 13 7.73453 13C7.73462 13 7.73471 13 7.73479 13C7.73488 13 7.73497 13 7.73506 13C7.73515 13 7.73523 13 7.73532 13C7.73541 13 7.7355 13 7.73559 13C7.73567 13 7.73576 13 7.73585 13C7.73594 13 7.73602 13 7.73611 13C7.7362 13 7.73629 13 7.73638 13C7.73646 13 7.73655 13 7.73664 13C7.73673 13 7.73682 13 7.7369 13C7.73699 13 7.73708 13 7.73717 13C7.73726 13 7.73734 13 7.73743 13C7.73752 13 7.73761 13 7.73769 13C7.73778 13 7.73787 13 7.73796 13C7.73805 13 7.73813 13 7.73822 13C7.73831 13 7.7384 13 7.73849 13C7.73857 13 7.73866 13 7.73875 13C7.73884 13 7.73893 13 7.73901 13C7.7391 13 7.73919 13 7.73928 13C7.73936 13 7.73945 13 7.73954 13C7.73963 13 7.73972 13 7.7398 13C7.73989 13 7.73998 13 7.74007 13C7.74016 13 7.74024 13 7.74033 13C7.74042 13 7.74051 13 7.7406 13C7.74068 13 7.74077 13 7.74086 13C7.74095 13 7.74103 13 7.74112 13C7.74121 13 7.7413 13 7.74139 13C7.74147 13 7.74156 13 7.74165 13C7.74174 13 7.74183 13 7.74191 13C7.742 13 7.74209 13 7.74218 13C7.74227 13 7.74235 13 7.74244 13C7.74253 13 7.74262 13 7.7427 13C7.74279 13 7.74288 13 7.74297 13C7.74306 13 7.74314 13 7.74323 13C7.74332 13 7.74341 13 7.7435 13C7.74358 13 7.74367 13 7.74376 13C7.74385 13 7.74394 13 7.74402 13C7.74411 13 7.7442 13 7.74429 13C7.74437 13 7.74446 13 7.74455 13C7.74464 13 7.74473 13 7.74481 13C7.7449 13 7.74499 13 7.74508 13C7.74517 13 7.74525 13 7.74534 13C7.74543 13 7.74552 13 7.7456 13C7.74569 13 7.74578 13 7.74587 13C7.74596 13 7.74604 13 7.74613 13C7.74622 13 7.74631 13 7.7464 13C7.74648 13 7.74657 13 7.74666 13C7.74675 13 7.74684 13 7.74692 13C7.74701 13 7.7471 13 7.74719 13C7.74727 13 7.74736 13 7.74745 13C7.74754 13 7.74763 13 7.74771 13C7.7478 13 7.74789 13 7.74798 13C7.74807 13 7.74815 13 7.74824 13C7.74833 13 7.74842 13 7.74851 13C7.74859 13 7.74868 13 7.74877 13C7.74886 13 7.74894 13 7.74903 13C7.74912 13 7.74921 13 7.7493 13C7.74938 13 7.74947 13 7.74956 13C7.74965 13 7.74974 13 7.74982 13C7.74991 13 7.75 13 7.75009 13C7.75018 13 7.75026 13 7.75035 13C7.75044 13 7.75053 13 7.75061 13C7.7507 13 7.75079 13 7.75088 13C7.75097 13 7.75105 13 7.75114 13C7.75123 13 7.75132 13 7.75141 13C7.75149 13 7.75158 13 7.75167 13C7.75176 13 7.75185 13 7.75193 13C7.75202 13 7.75211 13 7.7522 13C7.75228 13 7.75237 13 7.75246 13C7.75255 13 7.75264 13 7.75272 13C7.75281 13 7.7529 13 7.75299 13C7.75308 13 7.75316 13 7.75325 13C7.75334 13 7.75343 13 7.75352 13C7.7536 13 7.75369 13 7.75378 13C7.75387 13 7.75395 13 7.75404 13C7.75413 13 7.75422 13 7.75431 13C7.75439 13 7.75448 13 7.75457 13C7.75466 13 7.75475 13 7.75483 13C7.75492 13 7.75501 13 7.7551 13C7.75519 13 7.75527 13 7.75536 13C7.75545 13 7.75554 13 7.75562 13C7.75571 13 7.7558 13 7.75589 13C7.75598 13 7.75606 13 7.75615 13C7.75624 13 7.75633 13 7.75642 13C7.7565 13 7.75659 13 7.75668 13C7.75677 13 7.75686 13 7.75694 13C7.75703 13 7.75712 13 7.75721 13C7.75729 13 7.75738 13 7.75747 13C7.75756 13 7.75765 13 7.75773 13C7.75782 13 7.75791 13 7.758 13C7.75809 13 7.75817 13 7.75826 13C7.75835 13 7.75844 13 7.75852 13C7.75861 13 7.7587 13 7.75879 13C7.75888 13 7.75896 13 7.75905 13C7.75914 13 7.75923 13 7.75932 13C7.7594 13 7.75949 13 7.75958 13C7.75967 13 7.75976 13 7.75984 13C7.75993 13 7.76002 13 7.76011 13C7.76019 13 7.76028 13 7.76037 13C7.76046 13 7.76055 13 7.76063 13C7.76072 13 7.76081 13 7.7609 13C7.76099 13 7.76107 13 7.76116 13C7.76125 13 7.76134 13 7.76143 13C7.76151 13 7.7616 13 7.76169 13C7.76178 13 7.76186 13 7.76195 13C7.76204 13 7.76213 13 7.76222 13C7.7623 13 7.76239 13 7.76248 13C7.76257 13 7.76266 13 7.76274 13C7.76283 13 7.76292 13 7.76301 13C7.7631 13 7.76318 13 7.76327 13C7.76336 13 7.76345 13 7.76353 13C7.76362 13 7.76371 13 7.7638 13C7.76389 13 7.76397 13 7.76406 13C7.76415 13 7.76424 13 7.76433 13C7.76441 13 7.7645 13 7.76459 13C7.76468 13 7.76477 13 7.76485 13C7.76494 13 7.76503 13 7.76512 13C7.7652 13 7.76529 13 7.76538 13C7.76547 13 7.76556 13 7.76564 13C7.76573 13 7.76582 13 7.76591 13C7.766 13 7.76608 13 7.76617 13C7.76626 13 7.76635 13 7.76644 13C7.76652 13 7.76661 13 7.7667 13C7.76679 13 7.76687 13 7.76696 13C7.76705 13 7.76714 13 7.76723 13C7.76731 13 7.7674 13 7.76749 13C7.76758 13 7.76767 13 7.76775 13C7.76784 13 7.76793 13 7.76802 13C7.76811 13 7.76819 13 7.76828 13C7.76837 13 7.76846 13 7.76854 13C7.76863 13 7.76872 13 7.76881 13C7.7689 13 7.76898 13 7.76907 13C7.76916 13 7.76925 13 7.76934 13C7.76942 13 7.76951 13 7.7696 13C7.76969 13 7.76977 13 7.76986 13C7.76995 13 7.77004 13 7.77013 13C7.77021 13 7.7703 13 7.77039 13C7.77048 13 7.77057 13 7.77065 13C7.77074 13 7.77083 13 7.77092 13C7.77101 13 7.77109 13 7.77118 13C7.77127 13 7.77136 13 7.77144 13C7.77153 13 7.77162 13 7.77171 13C7.7718 13 7.77188 13 7.77197 13C7.77206 13 7.77215 13 7.77224 13C7.77232 13 7.77241 13 7.7725 13C7.77259 13 7.77268 13 7.77276 13C7.77285 13 7.77294 13 7.77303 13C7.77311 13 7.7732 13 7.77329 13C7.77338 13 7.77347 13 7.77355 13C7.77364 13 7.77373 13 7.77382 13C7.77391 13 7.77399 13 7.77408 13C7.77417 13 7.77426 13 7.77435 13C7.77443 13 7.77452 13 7.77461 13C7.7747 13 7.77478 13 7.77487 13C7.77496 13 7.77505 13 7.77514 13C7.77522 13 7.77531 13 7.7754 13C7.77549 13 7.77558 13 7.77566 13C7.77575 13 7.77584 13 7.77593 13C7.77602 13 7.7761 13 7.77619 13C7.77628 13 7.77637 13 7.77645 13C7.77654 13 7.77663 13 7.77672 13C7.77681 13 7.77689 13 7.77698 13C7.77707 13 7.77716 13 7.77725 13C7.77733 13 7.77742 13 7.77751 13C7.7776 13 7.77769 13 7.77777 13C7.77786 13 7.77795 13 7.77804 13C7.77812 13 7.77821 13 7.7783 13C7.77839 13 7.77848 13 7.77856 13C7.77865 13 7.77874 13 7.77883 13C7.77892 13 7.779 13 7.77909 13C7.77918 13 7.77927 13 7.77936 13C7.77944 13 7.77953 13 7.77962 13C7.77971 13 7.77979 13 7.77988 13C7.77997 13 7.78006 13 7.78015 13C7.78023 13 7.78032 13 7.78041 13C7.7805 13 7.78059 13 7.78067 13C7.78076 13 7.78085 13 7.78094 13C7.78102 13 7.78111 13 7.7812 13C7.78129 13 7.78138 13 7.78146 13C7.78155 13 7.78164 13 7.78173 13C7.78182 13 7.7819 13 7.78199 13C7.78208 13 7.78217 13 7.78226 13C7.78234 13 7.78243 13 7.78252 13C7.78261 13 7.78269 13 7.78278 13C7.78287 13 7.78296 13 7.78305 13C7.78313 13 7.78322 13 7.78331 13C7.7834 13 7.78349 13 7.78357 13C7.78366 13 7.78375 13 7.78384 13C7.78393 13 7.78401 13 7.7841 13C7.78419 13 7.78428 13 7.78436 13C7.78445 13 7.78454 13 7.78463 13C7.78472 13 7.7848 13 7.78489 13C7.78498 13 7.78507 13 7.78516 13C7.78524 13 7.78533 13 7.78542 13C7.78551 13 7.78559 13 7.78568 13C7.78577 13 7.78586 13 7.78595 13C7.78603 13 7.78612 13 7.78621 13C7.7863 13 7.78639 13 7.78647 13C7.78656 13 7.78665 13 7.78674 13C7.78683 13 7.78691 13 7.787 13C7.78709 13 7.78718 13 7.78726 13C7.78735 13 7.78744 13 7.78753 13C7.78762 13 7.7877 13 7.78779 13C7.78788 13 7.78797 13 7.78806 13C7.78814 13 7.78823 13 7.78832 13C7.78841 13 7.7885 13 7.78858 13C7.78867 13 7.78876 13 7.78885 13C7.78894 13 7.78902 13 7.78911 13C7.7892 13 7.78929 13 7.78937 13C7.78946 13 7.78955 13 7.78964 13C7.78973 13 7.78981 13 7.7899 13C7.78999 13 7.79008 13 7.79017 13C7.79025 13 7.79034 13 7.79043 13C7.79052 13 7.79061 13 7.79069 13C7.79078 13 7.79087 13 7.79096 13C7.79104 13 7.79113 13 7.79122 13C7.79131 13 7.7914 13 7.79148 13C7.79157 13 7.79166 13 7.79175 13C7.79184 13 7.79192 13 7.79201 13C7.7921 13 7.79219 13 7.79227 13C7.79236 13 7.79245 13 7.79254 13C7.79263 13 7.79271 13 7.7928 13C7.79289 13 7.79298 13 7.79307 13C7.79315 13 7.79324 13 7.79333 13C7.79342 13 7.79351 13 7.79359 13C7.79368 13 7.79377 13 7.79386 13C7.79394 13 7.79403 13 7.79412 13C7.79421 13 7.7943 13 7.79438 13C7.79447 13 7.79456 13 7.79465 13C7.79474 13 7.79482 13 7.79491 13C7.795 13 7.79509 13 7.79518 13C7.79526 13 7.79535 13 7.79544 13C7.79553 13 7.79561 13 7.7957 13C7.79579 13 7.79588 13 7.79597 13C7.79605 13 7.79614 13 7.79623 13C7.79632 13 7.79641 13 7.79649 13C7.79658 13 7.79667 13 7.79676 13C7.79684 13 7.79693 13 7.79702 13C7.79711 13 7.7972 13 7.79728 13C7.79737 13 7.79746 13 7.79755 13C7.79764 13 7.79772 13 7.79781 13C7.7979 13 7.79799 13 7.79808 13C7.79816 13 7.79825 13 7.79834 13C7.79843 13 7.79851 13 7.7986 13C7.79869 13 7.79878 13 7.79887 13C7.79895 13 7.79904 13 7.79913 13C7.79922 13 7.79931 13 7.79939 13C7.79948 13 7.79957 13 7.79966 13C7.79975 13 7.79983 13 7.79992 13C7.80001 13 7.8001 13 7.80018 13C7.80027 13 7.80036 13 7.80045 13C7.80054 13 7.80062 13 7.80071 13C7.8008 13 7.80089 13 7.80098 13C7.80106 13 7.80115 13 7.80124 13C7.80133 13 7.80142 13 7.8015 13C7.80159 13 7.80168 13 7.80177 13C7.80185 13 7.80194 13 7.80203 13C7.80212 13 7.80221 13 7.80229 13C7.80238 13 7.80247 13 7.80256 13C7.80265 13 7.80273 13 7.80282 13C7.80291 13 7.803 13 7.80309 13C7.80317 13 7.80326 13 7.80335 13C7.80344 13 7.80352 13 7.80361 13C7.8037 13 7.80379 13 7.80388 13C7.80396 13 7.80405 13 7.80414 13C7.80423 13 7.80432 13 7.8044 13C7.80449 13 7.80458 13 7.80467 13C7.80476 13 7.80484 13 7.80493 13C7.80502 13 7.80511 13 7.80519 13C7.80528 13 7.80537 13 7.80546 13C7.80555 13 7.80563 13 7.80572 13C7.80581 13 7.8059 13 7.80599 13C7.80607 13 7.80616 13 7.80625 13C7.80634 13 7.80643 13 7.80651 13C7.8066 13 7.80669 13 7.80678 13C7.80686 13 7.80695 13 7.80704 13C7.80713 13 7.80722 13 7.8073 13C7.80739 13 7.80748 13 7.80757 13C7.80766 13 7.80774 13 7.80783 13C7.80792 13 7.80801 13 7.80809 13C7.80818 13 7.80827 13 7.80836 13C7.80845 13 7.80853 13 7.80862 13C7.80871 13 7.8088 13 7.80889 13C7.80897 13 7.80906 13 7.80915 13C7.80924 13 7.80933 13 7.80941 13C7.8095 13 7.80959 13 7.80968 13C7.80976 13 7.80985 13 7.80994 13C7.81003 13 7.81012 13 7.8102 13C7.81029 13 7.81038 13 7.81047 13C7.81056 13 7.81064 13 7.81073 13C7.81082 13 7.81091 13 7.811 13C7.81108 13 7.81117 13 7.81126 13C7.81135 13 7.81143 13 7.81152 13C7.81161 13 7.8117 13 7.81179 13C7.81187 13 7.81196 13 7.81205 13C7.81214 13 7.81223 13 7.81231 13C7.8124 13 7.81249 13 7.81258 13C7.81267 13 7.81275 13 7.81284 13C7.81293 13 7.81302 13 7.8131 13C7.81319 13 7.81328 13 7.81337 13C7.81346 13 7.81354 13 7.81363 13C7.81372 13 7.81381 13 7.8139 13C7.81398 13 7.81407 13 7.81416 13C7.81425 13 7.81434 13 7.81442 13C7.81451 13 7.8146 13 7.81469 13C7.81477 13 7.81486 13 7.81495 13C7.81504 13 7.81513 13 7.81521 13C7.8153 13 7.81539 13 7.81548 13C7.81557 13 7.81565 13 7.81574 13C7.81583 13 7.81592 13 7.81601 13C7.81609 13 7.81618 13 7.81627 13C7.81636 13 7.81644 13 7.81653 13C7.81662 13 7.81671 13 7.8168 13C7.81688 13 7.81697 13 7.81706 13C7.81715 13 7.81724 13 7.81732 13C7.81741 13 7.8175 13 7.81759 13C7.81768 13 7.81776 13 7.81785 13C7.81794 13 7.81803 13 7.81811 13C7.8182 13 7.81829 13 7.81838 13C7.81847 13 7.81855 13 7.81864 13C7.81873 13 7.81882 13 7.81891 13C7.81899 13 7.81908 13 7.81917 13C7.81926 13 7.81934 13 7.81943 13C7.81952 13 7.81961 13 7.8197 13C7.81978 13 7.81987 13 7.81996 13C7.82005 13 7.82014 13 7.82022 13C7.82031 13 7.8204 13 7.82049 13C7.82058 13 7.82066 13 7.82075 13C7.82084 13 7.82093 13 7.82101 13C7.8211 13 7.82119 13 7.82128 13C7.82137 13 7.82145 13 7.82154 13C7.82163 13 7.82172 13 7.82181 13C7.82189 13 7.82198 13 7.82207 13C7.82216 13 7.82225 13 7.82233 13C7.82242 13 7.82251 13 7.8226 13C7.82268 13 7.82277 13 7.82286 13C7.82295 13 7.82304 13 7.82312 13C7.82321 13 7.8233 13 7.82339 13C7.82348 13 7.82356 13 7.82365 13C7.82374 13 7.82383 13 7.82392 13C7.824 13 7.82409 13 7.82418 13C7.82427 13 7.82435 13 7.82444 13C7.82453 13 7.82462 13 7.82471 13C7.82479 13 7.82488 13 7.82497 13C7.82506 13 7.82515 13 7.82523 13C7.82532 13 7.82541 13 7.8255 13C7.82559 13 7.82567 13 7.82576 13C7.82585 13 7.82594 13 7.82602 13C7.82611 13 7.8262 13 7.82629 13C7.82638 13 7.82646 13 7.82655 13C7.82664 13 7.82673 13 7.82682 13C7.8269 13 7.82699 13 7.82708 13C7.82717 13 7.82726 13 7.82734 13C7.82743 13 7.82752 13 7.82761 13C7.82769 13 7.82778 13 7.82787 13C7.82796 13 7.82805 13 7.82813 13C7.82822 13 7.82831 13 7.8284 13C7.82849 13 7.82857 13 7.82866 13C7.82875 13 7.82884 13 7.82893 13C7.82901 13 7.8291 13 7.82919 13C7.82928 13 7.82936 13 7.82945 13C7.82954 13 7.82963 13 7.82972 13C7.8298 13 7.82989 13 7.82998 13C7.83007 13 7.83016 13 7.83024 13C7.83033 13 7.83042 13 7.83051 13C7.8306 13 7.83068 13 7.83077 13C7.83086 13 7.83095 13 7.83103 13C7.83112 13 7.83121 13 7.8313 13C7.83139 13 7.83147 13 7.83156 13C7.83165 13 7.83174 13 7.83183 13C7.83191 13 7.832 13 7.83209 13C7.83218 13 7.83226 13 7.83235 13C7.83244 13 7.83253 13 7.83262 13C7.8327 13 7.83279 13 7.83288 13C7.83297 13 7.83306 13 7.83314 13C7.83323 13 7.83332 13 7.83341 13C7.8335 13 7.83358 13 7.83367 13C7.83376 13 7.83385 13 7.83393 13C7.83402 13 7.83411 13 7.8342 13C7.83429 13 7.83437 13 7.83446 13C7.83455 13 7.83464 13 7.83473 13C7.83481 13 7.8349 13 7.83499 13C7.83508 13 7.83517 13 7.83525 13C7.83534 13 7.83543 13 7.83552 13C7.8356 13 7.83569 13 7.83578 13C7.83587 13 7.83596 13 7.83604 13C7.83613 13 7.83622 13 7.83631 13C7.8364 13 7.83648 13 7.83657 13C7.83666 13 7.83675 13 7.83684 13C7.83692 13 7.83701 13 7.8371 13C7.83719 13 7.83727 13 7.83736 13C7.83745 13 7.83754 13 7.83763 13C7.83771 13 7.8378 13 7.83789 13C7.83798 13 7.83807 13 7.83815 13C7.83824 13 7.83833 13 7.83842 13C7.83851 13 7.83859 13 7.83868 13C7.83877 13 7.83886 13 7.83894 13C7.83903 13 7.83912 13 7.83921 13C7.8393 13 7.83938 13 7.83947 13C7.83956 13 7.83965 13 7.83974 13C7.83982 13 7.83991 13 7.84 13V7ZM7.89237 7.00586C7.73248 6.99585 7.41043 6.90939 7.07982 6.72023L4.10018 11.9281C5.02957 12.4598 6.23751 12.914 7.51763 12.9941L7.89237 7.00586ZM6.96729 6.659C6.02218 6.17058 5.21662 5.44588 4.66036 4.56649L-0.410364 7.77394C0.743383 9.59792 2.36783 11.0359 4.21271 11.9893L6.96729 6.659ZM4.62211 4.50755C4.52583 4.36295 4.47564 4.28657 4.43395 4.21701C4.39746 4.1561 4.38775 4.13313 4.38797 4.13363L-1.12797 6.49465C-0.868115 7.10174 -0.532404 7.59213 -0.372111 7.83287L4.62211 4.50755ZM4.20333 3.77207C4.07281 3.55427 4 3.275 4 3.06133H-2C-2 4.37957 -1.62281 5.72233 -0.94333 6.85621L4.20333 3.77207ZM3.98515 3.35947C3.9694 3.51718 3.92753 3.64353 3.8752 3.74831C3.82488 3.84908 3.72736 4.00459 3.53878 4.16642L-0.368782 -0.3867C-1.32479 0.433763 -1.8711 1.62131 -1.98515 2.76319L3.98515 3.35947ZM3.70765 4.00986C3.8473 3.87002 3.94622 3.77107 4.02914 3.69035C4.06879 3.65175 4.09861 3.62338 4.12132 3.60226C4.1441 3.58108 4.1553 3.57135 4.15753 3.56943C4.16543 3.56265 4.11199 3.6099 4.01174 3.67264C3.95918 3.70553 3.89398 3.74259 3.81686 3.77956C3.73908 3.81684 3.65633 3.85059 3.56975 3.87949L1.67025 -1.8119C1.01748 -1.59404 0.552805 -1.2436 0.249968 -0.983696C-0.016268 -0.755208 -0.303885 -0.464185 -0.537647 -0.230131L3.70765 4.00986ZM3.20906 3.97539C3.17106 3.983 3.07141 4 2.92937 4C2.77951 4 2.62486 3.98113 2.47654 3.94401L3.93346 -1.87642C3.23233 -2.05192 2.5912 -2.02 2.03094 -1.90781L3.20906 3.97539ZM2.83244 4.01057C2.8258 4.00974 2.64631 3.98899 2.41137 3.90345C2.15479 3.81003 1.96745 3.69038 1.86225 3.61236C1.78533 3.55531 1.76353 3.52799 1.84696 3.60775C1.92516 3.68251 2.02919 3.78641 2.20735 3.9648L6.45265 -0.275187C6.20408 -0.524068 5.81472 -0.926333 5.4365 -1.20685C4.76953 -1.70152 4.13004 -1.87384 3.57756 -1.94298L2.83244 4.01057ZM2.20735 3.9648C2.36805 4.1257 2.47977 4.23758 2.56436 4.32355C2.60565 4.3655 2.63498 4.39571 2.65618 4.4179C2.6777 4.44042 2.68514 4.44872 2.68387 4.44731C2.68156 4.44473 2.61922 4.37578 2.54269 4.26285C2.50411 4.20593 2.47203 4.15283 2.44662 4.10761C2.42367 4.06677 2.40974 4.03856 2.41105 4.04117L7.77895 1.36058C7.41469 0.631145 6.89779 0.170511 6.45265 -0.275187L2.20735 3.9648ZM2.41105 4.04117C2.28942 3.79761 2.02839 3.07303 2.45605 2.21665L7.82395 4.89724C8.52161 3.50019 8.17059 2.14482 7.77895 1.36058L2.41105 4.04117ZM2.35409 2.44397C2.35677 2.43728 2.38507 2.36636 2.43739 2.27099C2.49342 2.16885 2.55401 2.08002 2.60985 2.00921C2.6596 1.94611 2.69159 1.91519 2.68196 1.92483C2.67141 1.93539 2.63682 1.96895 2.56052 2.03686L6.54948 6.51884C6.78149 6.31236 7.06757 6.04614 7.3214 5.72421C7.63525 5.32617 7.8097 4.96082 7.92591 4.66992L2.35409 2.44397ZM2.43235 2.15785L2.20735 2.38314L6.45265 6.62312L6.67765 6.39784L2.43235 2.15785ZM1.73291 6.00483C2.52342 7.37197 3.67605 8.41928 4.84159 9.15634L8.04841 4.08521C7.50395 3.74091 7.12658 3.34643 6.92709 3.00143L1.73291 6.00483ZM6.445 9.62078H6.49V3.62078H6.445V9.62078ZM8.61265 8.74077L8.83765 8.51549L4.59235 4.2755L4.36735 4.50078L8.61265 8.74077ZM8.83765 8.51549C8.90515 8.4479 8.9839 8.36905 9.06265 8.2902C9.1414 8.21135 9.22015 8.13251 9.28765 8.06492L5.04235 3.82494C4.97485 3.89252 4.8961 3.97137 4.81735 4.05022C4.7386 4.12907 4.65985 4.20792 4.59235 4.2755L8.83765 8.51549ZM8.75643 8.48803C8.54095 8.62287 8.21043 8.75599 7.79882 8.76887C7.39634 8.78146 7.08476 8.67397 6.90202 8.58248L9.58798 3.21726C8.35997 2.60249 6.88266 2.58263 5.57357 3.40183L8.75643 8.48803ZM6.90202 8.58248C6.90458 8.58377 6.8763 8.56977 6.8354 8.54673C6.7901 8.52121 6.73695 8.48902 6.67999 8.45031C6.56701 8.37356 6.49804 8.31105 6.49547 8.30873C6.49405 8.30745 6.50233 8.3149 6.52482 8.33644C6.54698 8.35767 6.57716 8.38704 6.61905 8.42837C6.70491 8.51307 6.81665 8.62492 6.97735 8.78583L11.2226 4.54584C10.7778 4.10045 10.3174 3.58242 9.58798 3.21726L6.90202 8.58248ZM7.05168 8.85772C7.21051 9.00615 7.31181 9.10355 7.37677 9.16812C7.40831 9.19946 7.42562 9.21746 7.43291 9.22519C7.44035 9.23307 7.43238 9.22501 7.41486 9.20436C7.39656 9.18281 7.36588 9.14526 7.32879 9.09387C7.28994 9.04004 7.25218 8.9823 7.21697 8.92247C7.18334 8.86532 7.16103 8.82143 7.15481 8.8091C7.15257 8.80464 7.15171 8.80285 7.15712 8.81384C7.16091 8.82155 7.17057 8.84123 7.18105 8.8622L12.549 6.1816C12.5482 6.18005 12.5473 6.17826 12.5409 6.1652C12.5361 6.15542 12.5253 6.13356 12.5131 6.1094C12.4871 6.05764 12.4447 5.97573 12.3879 5.87915C12.2633 5.66741 12.1284 5.4856 11.9889 5.3213C11.7651 5.0577 11.4732 4.77751 11.1483 4.47394L7.05168 8.85772ZM7.25947 9.00892C7.10173 8.73252 7 8.39139 7 8.01752C7 7.64365 7.10173 7.30252 7.25947 7.02613L12.4705 10.0002C13.1765 8.76318 13.1765 7.27186 12.4705 6.03489L7.25947 9.00892ZM7.18105 7.17284C7.17899 7.17697 7.21314 7.10726 7.27258 7.01428C7.30278 6.96703 7.33411 6.92207 7.36551 6.88028C7.3961 6.83958 7.4221 6.80811 7.43977 6.78746C7.4567 6.76768 7.46683 6.75688 7.46555 6.75826C7.46416 6.75975 7.45628 6.76815 7.43791 6.78701C7.39753 6.82844 7.34235 6.88377 7.24735 6.97888L11.4926 11.2189C11.7777 10.9334 12.2024 10.5475 12.549 9.85344L7.18105 7.17284ZM7.24735 6.97888C7.24691 6.97932 7.24647 6.97976 7.24604 6.9802C7.2456 6.98064 7.24516 6.98108 7.24472 6.98152C7.24428 6.98196 7.24384 6.9824 7.2434 6.98284C7.24296 6.98328 7.24252 6.98372 7.24208 6.98416C7.24164 6.9846 7.2412 6.98504 7.24076 6.98548C7.24032 6.98592 7.23988 6.98636 7.23944 6.9868C7.239 6.98724 7.23856 6.98768 7.23813 6.98812C7.23769 6.98856 7.23725 6.989 7.23681 6.98944C7.23637 6.98988 7.23593 6.99032 7.23549 6.99076C7.23505 6.9912 7.23461 6.99164 7.23417 6.99208C7.23373 6.99252 7.23329 6.99296 7.23285 6.9934C7.23241 6.99384 7.23198 6.99428 7.23154 6.99472C7.2311 6.99516 7.23066 6.9956 7.23022 6.99604C7.22978 6.99648 7.22934 6.99692 7.2289 6.99736C7.22846 6.9978 7.22802 6.99824 7.22758 6.99867C7.22714 6.99911 7.22671 6.99955 7.22627 6.99999C7.22583 7.00043 7.22539 7.00087 7.22495 7.00131C7.22451 7.00175 7.22407 7.00219 7.22363 7.00263C7.22319 7.00307 7.22275 7.00351 7.22232 7.00395C7.22188 7.00439 7.22144 7.00483 7.221 7.00527C7.22056 7.00571 7.22012 7.00615 7.21968 7.00659C7.21924 7.00702 7.21881 7.00746 7.21837 7.0079C7.21793 7.00834 7.21749 7.00878 7.21705 7.00922C7.21661 7.00966 7.21617 7.0101 7.21574 7.01054C7.2153 7.01098 7.21486 7.01142 7.21442 7.01185C7.21398 7.01229 7.21354 7.01273 7.21311 7.01317C7.21267 7.01361 7.21223 7.01405 7.21179 7.01449C7.21135 7.01493 7.21091 7.01537 7.21048 7.0158C7.21004 7.01624 7.2096 7.01668 7.20916 7.01712C7.20872 7.01756 7.20829 7.018 7.20785 7.01844C7.20741 7.01887 7.20697 7.01931 7.20653 7.01975C7.2061 7.02019 7.20566 7.02063 7.20522 7.02107C7.20478 7.0215 7.20435 7.02194 7.20391 7.02238C7.20347 7.02282 7.20303 7.02326 7.2026 7.02369C7.20216 7.02413 7.20172 7.02457 7.20128 7.02501C7.20085 7.02545 7.20041 7.02588 7.19997 7.02632C7.19953 7.02676 7.1991 7.0272 7.19866 7.02764C7.19822 7.02807 7.19778 7.02851 7.19735 7.02895C7.19691 7.02939 7.19647 7.02982 7.19604 7.03026C7.1956 7.0307 7.19516 7.03114 7.19473 7.03157C7.19429 7.03201 7.19385 7.03245 7.19342 7.03289C7.19298 7.03332 7.19254 7.03376 7.19211 7.0342C7.19167 7.03463 7.19123 7.03507 7.1908 7.03551C7.19036 7.03594 7.18992 7.03638 7.18949 7.03682C7.18905 7.03725 7.18862 7.03769 7.18818 7.03813C7.18774 7.03856 7.18731 7.039 7.18687 7.03944C7.18644 7.03987 7.186 7.04031 7.18556 7.04075C7.18513 7.04118 7.18469 7.04162 7.18426 7.04206C7.18382 7.04249 7.18339 7.04293 7.18295 7.04336C7.18252 7.0438 7.18208 7.04424 7.18164 7.04467C7.18121 7.04511 7.18077 7.04554 7.18034 7.04598C7.1799 7.04641 7.17947 7.04685 7.17903 7.04728C7.1786 7.04772 7.17816 7.04816 7.17773 7.04859C7.1773 7.04903 7.17686 7.04946 7.17643 7.0499C7.17599 7.05033 7.17556 7.05077 7.17512 7.0512C7.17469 7.05164 7.17425 7.05207 7.17382 7.05251C7.17339 7.05294 7.17295 7.05338 7.17252 7.05381C7.17208 7.05424 7.17165 7.05468 7.17122 7.05511C7.17078 7.05555 7.17035 7.05598 7.16991 7.05642C7.16948 7.05685 7.16905 7.05728 7.16861 7.05772C7.16818 7.05815 7.16775 7.05859 7.16731 7.05902C7.16688 7.05945 7.16645 7.05989 7.16601 7.06032C7.16558 7.06075 7.16515 7.06119 7.16472 7.06162C7.16428 7.06205 7.16385 7.06249 7.16342 7.06292C7.16299 7.06335 7.16255 7.06379 7.16212 7.06422C7.16169 7.06465 7.16126 7.06509 7.16082 7.06552C7.16039 7.06595 7.15996 7.06638 7.15953 7.06682C7.1591 7.06725 7.15866 7.06768 7.15823 7.06811C7.1578 7.06855 7.15737 7.06898 7.15694 7.06941C7.15651 7.06984 7.15607 7.07027 7.15564 7.07071C7.15521 7.07114 7.15478 7.07157 7.15435 7.072C7.15392 7.07243 7.15349 7.07286 7.15306 7.07329C7.15263 7.07373 7.1522 7.07416 7.15177 7.07459C7.15133 7.07502 7.1509 7.07545 7.15047 7.07588C7.15004 7.07631 7.14961 7.07674 7.14918 7.07717C7.14875 7.0776 7.14832 7.07803 7.14789 7.07846C7.14746 7.07889 7.14703 7.07932 7.14661 7.07975C7.14618 7.08018 7.14575 7.08061 7.14532 7.08104C7.14489 7.08147 7.14446 7.0819 7.14403 7.08233C7.1436 7.08276 7.14317 7.08319 7.14274 7.08362C7.14231 7.08405 7.14189 7.08448 7.14146 7.08491C7.14103 7.08534 7.1406 7.08577 7.14017 7.0862C7.13974 7.08662 7.13932 7.08705 7.13889 7.08748C7.13846 7.08791 7.13803 7.08834 7.1376 7.08877C7.13718 7.08919 7.13675 7.08962 7.13632 7.09005C7.13589 7.09048 7.13547 7.09091 7.13504 7.09133C7.13461 7.09176 7.13419 7.09219 7.13376 7.09262C7.13333 7.09304 7.13291 7.09347 7.13248 7.0939C7.13205 7.09432 7.13163 7.09475 7.1312 7.09518C7.13077 7.0956 7.13035 7.09603 7.12992 7.09646C7.1295 7.09688 7.12907 7.09731 7.12865 7.09774C7.12822 7.09816 7.12779 7.09859 7.12737 7.09901C7.12694 7.09944 7.12652 7.09987 7.12609 7.10029C7.12567 7.10072 7.12524 7.10114 7.12482 7.10157C7.1244 7.10199 7.12397 7.10242 7.12355 7.10284C7.12312 7.10327 7.1227 7.10369 7.12227 7.10412C7.12185 7.10454 7.12143 7.10497 7.121 7.10539C7.12058 7.10581 7.12016 7.10624 7.11973 7.10666C7.11931 7.10709 7.11889 7.10751 7.11846 7.10793C7.11804 7.10836 7.11762 7.10878 7.11719 7.1092C7.11677 7.10963 7.11635 7.11005 7.11593 7.11047C7.1155 7.11089 7.11508 7.11132 7.11466 7.11174C7.11424 7.11216 7.11382 7.11259 7.11339 7.11301C7.11297 7.11343 7.11255 7.11385 7.11213 7.11427C7.11171 7.1147 7.11129 7.11512 7.11087 7.11554C7.11045 7.11596 7.11002 7.11638 7.1096 7.1168C7.10918 7.11722 7.10876 7.11764 7.10834 7.11806C7.10792 7.11849 7.1075 7.11891 7.10708 7.11933C7.10666 7.11975 7.10624 7.12017 7.10582 7.12059C7.1054 7.12101 7.10498 7.12143 7.10457 7.12185C7.10415 7.12227 7.10373 7.12269 7.10331 7.12311C7.10289 7.12353 7.10247 7.12394 7.10205 7.12436C7.10163 7.12478 7.10122 7.1252 7.1008 7.12562C7.10038 7.12604 7.09996 7.12646 7.09954 7.12687C7.09913 7.12729 7.09871 7.12771 7.09829 7.12813C7.09787 7.12855 7.09746 7.12896 7.09704 7.12938C7.09662 7.1298 7.09621 7.13022 7.09579 7.13063C7.09537 7.13105 7.09496 7.13147 7.09454 7.13188C7.09413 7.1323 7.09371 7.13272 7.09329 7.13313C7.09288 7.13355 7.09246 7.13397 7.09205 7.13438C7.09163 7.1348 7.09122 7.13521 7.0908 7.13563C7.09039 7.13604 7.08997 7.13646 7.08956 7.13687C7.08914 7.13729 7.08873 7.1377 7.08831 7.13812C7.0879 7.13853 7.08749 7.13895 7.08707 7.13936C7.08666 7.13978 7.08625 7.14019 7.08583 7.1406C7.08542 7.14102 7.08501 7.14143 7.08459 7.14184C7.08418 7.14226 7.08377 7.14267 7.08336 7.14308C7.08294 7.1435 7.08253 7.14391 7.08212 7.14432C7.08171 7.14473 7.0813 7.14515 7.08088 7.14556C7.08047 7.14597 7.08006 7.14638 7.07965 7.14679C7.07924 7.14721 7.07883 7.14762 7.07842 7.14803C7.07801 7.14844 7.0776 7.14885 7.07719 7.14926C7.07678 7.14967 7.07637 7.15008 7.07596 7.15049C7.07555 7.1509 7.07514 7.15131 7.07473 7.15172C7.07432 7.15213 7.07391 7.15254 7.0735 7.15295C7.07309 7.15336 7.07268 7.15377 7.07227 7.15418C7.07187 7.15459 7.07146 7.155 7.07105 7.15541C7.07064 7.15581 7.07023 7.15622 7.06983 7.15663C7.06942 7.15704 7.06901 7.15745 7.0686 7.15785C7.0682 7.15826 7.06779 7.15867 7.06738 7.15908C7.06698 7.15948 7.06657 7.15989 7.06616 7.1603C7.06576 7.1607 7.06535 7.16111 7.06495 7.16152C7.06454 7.16192 7.06414 7.16233 7.06373 7.16273C7.06332 7.16314 7.06292 7.16354 7.06252 7.16395C7.06211 7.16435 7.06171 7.16476 7.0613 7.16516C7.0609 7.16557 7.06049 7.16597 7.06009 7.16638C7.05969 7.16678 7.05928 7.16719 7.05888 7.16759C7.05848 7.16799 7.05807 7.1684 7.05767 7.1688C7.05727 7.1692 7.05687 7.16961 7.05646 7.17001C7.05606 7.17041 7.05566 7.17081 7.05526 7.17122C7.05486 7.17162 7.05445 7.17202 7.05405 7.17242C7.05365 7.17282 7.05325 7.17323 7.05285 7.17363C7.05245 7.17403 7.05205 7.17443 7.05165 7.17483C7.05125 7.17523 7.05085 7.17563 7.05045 7.17603C7.05005 7.17643 7.04965 7.17683 7.04925 7.17723C7.04885 7.17763 7.04845 7.17803 7.04805 7.17843C7.04766 7.17883 7.04726 7.17923 7.04686 7.17963C7.04646 7.18002 7.04606 7.18042 7.04566 7.18082C7.04527 7.18122 7.04487 7.18162 7.04447 7.18201C7.04408 7.18241 7.04368 7.18281 7.04328 7.18321C7.04289 7.1836 7.04249 7.184 7.04209 7.1844C7.0417 7.18479 7.0413 7.18519 7.04091 7.18559C7.04051 7.18598 7.04012 7.18638 7.03972 7.18677C7.03933 7.18717 7.03893 7.18756 7.03854 7.18796C7.03814 7.18835 7.03775 7.18875 7.03735 7.18914C7.03696 7.18954 7.03657 7.18993 7.03617 7.19032C7.03578 7.19072 7.03539 7.19111 7.035 7.1915C7.0346 7.1919 7.03421 7.19229 7.03382 7.19268C7.03343 7.19308 7.03303 7.19347 7.03264 7.19386C7.03225 7.19425 7.03186 7.19464 7.03147 7.19504C7.03108 7.19543 7.03069 7.19582 7.0303 7.19621C7.02991 7.1966 7.02952 7.19699 7.02913 7.19738C7.02874 7.19777 7.02835 7.19816 7.02796 7.19855C7.02757 7.19894 7.02718 7.19933 7.02679 7.19972C7.0264 7.20011 7.02601 7.2005 7.02562 7.20089C7.02524 7.20127 7.02485 7.20166 7.02446 7.20205C7.02407 7.20244 7.02369 7.20283 7.0233 7.20321C7.02291 7.2036 7.02253 7.20399 7.02214 7.20438C7.02175 7.20476 7.02137 7.20515 7.02098 7.20554C7.0206 7.20592 7.02021 7.20631 7.01983 7.20669C7.01944 7.20708 7.01906 7.20746 7.01867 7.20785C7.01829 7.20823 7.0179 7.20862 7.01752 7.209C7.01713 7.20939 7.01675 7.20977 7.01637 7.21016C7.01598 7.21054 7.0156 7.21092 7.01522 7.21131C7.01484 7.21169 7.01445 7.21207 7.01407 7.21245C7.01369 7.21284 7.01331 7.21322 7.01293 7.2136C7.01254 7.21398 7.01216 7.21437 7.01178 7.21475C7.0114 7.21513 7.01102 7.21551 7.01064 7.21589C7.01026 7.21627 7.00988 7.21665 7.0095 7.21703C7.00912 7.21741 7.00874 7.21779 7.00836 7.21817C7.00798 7.21855 7.00761 7.21893 7.00723 7.21931C7.00685 7.21969 7.00647 7.22006 7.00609 7.22044C7.00572 7.22082 7.00534 7.2212 7.00496 7.22158C7.00458 7.22195 7.00421 7.22233 7.00383 7.22271C7.00346 7.22308 7.00308 7.22346 7.0027 7.22384C7.00233 7.22421 7.00195 7.22459 7.00158 7.22496C7.0012 7.22534 7.00083 7.22571 7.00045 7.22609C7.00008 7.22646 6.9997 7.22684 6.99933 7.22721C6.99896 7.22759 6.99858 7.22796 6.99821 7.22833C6.99784 7.22871 6.99747 7.22908 6.99709 7.22945C6.99672 7.22983 6.99635 7.2302 6.99598 7.23057C6.9956 7.23094 6.99523 7.23132 6.99486 7.23169C6.99449 7.23206 6.99412 7.23243 6.99375 7.2328C6.99338 7.23317 6.99301 7.23354 6.99264 7.23391C6.99227 7.23428 6.9919 7.23465 6.99153 7.23502C6.99116 7.23539 6.99079 7.23576 6.99043 7.23613C6.99006 7.2365 6.98969 7.23687 6.98932 7.23723C6.98895 7.2376 6.98859 7.23797 6.98822 7.23834C6.98785 7.23871 6.98749 7.23907 6.98712 7.23944C6.98675 7.23981 6.98639 7.24017 6.98602 7.24054C6.98566 7.2409 6.98529 7.24127 6.98493 7.24163C6.98456 7.242 6.9842 7.24236 6.98383 7.24273C6.98347 7.24309 6.98311 7.24346 6.98274 7.24382C6.98238 7.24419 6.98202 7.24455 6.98165 7.24491C6.98129 7.24528 6.98093 7.24564 6.98057 7.246C6.9802 7.24636 6.97984 7.24673 6.97948 7.24709C6.97912 7.24745 6.97876 7.24781 6.9784 7.24817C6.97804 7.24853 6.97768 7.24889 6.97732 7.24925C6.97696 7.24961 6.9766 7.24997 6.97624 7.25033C6.97588 7.25069 6.97552 7.25105 6.97516 7.25141C6.97481 7.25177 6.97445 7.25213 6.97409 7.25249C6.97373 7.25284 6.97338 7.2532 6.97302 7.25356C6.97266 7.25392 6.97231 7.25427 6.97195 7.25463C6.97159 7.25499 6.97124 7.25534 6.97088 7.2557C6.97053 7.25605 6.97017 7.25641 6.96982 7.25676C6.96946 7.25712 6.96911 7.25747 6.96875 7.25783C6.9684 7.25818 6.96805 7.25854 6.96769 7.25889C6.96734 7.25924 6.96699 7.2596 6.96664 7.25995C6.96628 7.2603 6.96593 7.26065 6.96558 7.26101C6.96523 7.26136 6.96488 7.26171 6.96453 7.26206C6.96418 7.26241 6.96383 7.26276 6.96348 7.26311C6.96313 7.26346 6.96278 7.26381 6.96243 7.26416C6.96208 7.26451 6.96173 7.26486 6.96138 7.26521C6.96103 7.26556 6.96068 7.26591 6.96034 7.26626C6.95999 7.2666 6.95964 7.26695 6.95929 7.2673C6.95895 7.26765 6.9586 7.26799 6.95826 7.26834C6.95791 7.26869 6.95756 7.26903 6.95722 7.26938C6.95687 7.26972 6.95653 7.27007 6.95618 7.27041C6.95584 7.27076 6.95549 7.2711 6.95515 7.27145C6.95481 7.27179 6.95446 7.27214 6.95412 7.27248C6.95378 7.27282 6.95344 7.27317 6.95309 7.27351C6.95275 7.27385 6.95241 7.27419 6.95207 7.27453C6.95173 7.27488 6.95139 7.27522 6.95105 7.27556C6.95071 7.2759 6.95037 7.27624 6.95003 7.27658C6.94969 7.27692 6.94935 7.27726 6.94901 7.2776C6.94867 7.27794 6.94833 7.27828 6.94799 7.27861C6.94766 7.27895 6.94732 7.27929 6.94698 7.27963C6.94664 7.27997 6.94631 7.2803 6.94597 7.28064C6.94563 7.28098 6.9453 7.28131 6.94496 7.28165C6.94463 7.28199 6.94429 7.28232 6.94396 7.28266C6.94362 7.28299 6.94329 7.28333 6.94295 7.28366C6.94262 7.28399 6.94229 7.28433 6.94195 7.28466C6.94162 7.285 6.94129 7.28533 6.94096 7.28566C6.94062 7.28599 6.94029 7.28633 6.93996 7.28666C6.93963 7.28699 6.9393 7.28732 6.93897 7.28765C6.93864 7.28798 6.93831 7.28831 6.93798 7.28864C6.93765 7.28897 6.93732 7.2893 6.93699 7.28963C6.93666 7.28996 6.93633 7.29029 6.93601 7.29062C6.93568 7.29095 6.93535 7.29127 6.93502 7.2916C6.9347 7.29193 6.93437 7.29226 6.93404 7.29258C6.93372 7.29291 6.93339 7.29323 6.93307 7.29356C6.93274 7.29389 6.93242 7.29421 6.93209 7.29454C6.93177 7.29486 6.93144 7.29519 6.93112 7.29551C6.9308 7.29583 6.93047 7.29616 6.93015 7.29648C6.92983 7.2968 6.92951 7.29712 6.92918 7.29745C6.92886 7.29777 6.92854 7.29809 6.92822 7.29841C6.9279 7.29873 6.92758 7.29905 6.92726 7.29937C6.92694 7.29969 6.92662 7.30001 6.9263 7.30033C6.92598 7.30065 6.92566 7.30097 6.92535 7.30129C6.92503 7.30161 6.92471 7.30193 6.92439 7.30225C6.92408 7.30256 6.92376 7.30288 6.92344 7.3032C6.92313 7.30351 6.92281 7.30383 6.92249 7.30415C6.92218 7.30446 6.92186 7.30478 6.92155 7.30509C6.92124 7.30541 6.92092 7.30572 6.92061 7.30604C6.92029 7.30635 6.91998 7.30666 6.91967 7.30698C6.91936 7.30729 6.91904 7.3076 6.91873 7.30791C6.91842 7.30823 6.91811 7.30854 6.9178 7.30885C6.91749 7.30916 6.91718 7.30947 6.91687 7.30978C6.91656 7.31009 6.91625 7.3104 6.91594 7.31071C6.91563 7.31102 6.91532 7.31133 6.91501 7.31164C6.9147 7.31195 6.9144 7.31225 6.91409 7.31256C6.91378 7.31287 6.91348 7.31318 6.91317 7.31348C6.91286 7.31379 6.91256 7.31409 6.91225 7.3144C6.91195 7.31471 6.91164 7.31501 6.91134 7.31532C6.91103 7.31562 6.91073 7.31592 6.91043 7.31623C6.91012 7.31653 6.90982 7.31683 6.90952 7.31714C6.90922 7.31744 6.90892 7.31774 6.90861 7.31804C6.90831 7.31835 6.90801 7.31865 6.90771 7.31895C6.90741 7.31925 6.90711 7.31955 6.90681 7.31985C6.90651 7.32015 6.90621 7.32045 6.90591 7.32075C6.90562 7.32105 6.90532 7.32134 6.90502 7.32164C6.90472 7.32194 6.90443 7.32224 6.90413 7.32253C6.90383 7.32283 6.90354 7.32313 6.90324 7.32342C6.90295 7.32372 6.90265 7.32401 6.90236 7.32431C6.90206 7.3246 6.90177 7.3249 6.90147 7.32519C6.90118 7.32549 6.90089 7.32578 6.90059 7.32607C6.9003 7.32637 6.90001 7.32666 6.89972 7.32695C6.89943 7.32724 6.89914 7.32753 6.89885 7.32782C6.89855 7.32812 6.89826 7.32841 6.89797 7.3287C6.89769 7.32899 6.8974 7.32928 6.89711 7.32956C6.89682 7.32985 6.89653 7.33014 6.89624 7.33043C6.89596 7.33072 6.89567 7.331 6.89538 7.33129C6.8951 7.33158 6.89481 7.33187 6.89452 7.33215C6.89424 7.33244 6.89395 7.33272 6.89367 7.33301C6.89338 7.33329 6.8931 7.33358 6.89282 7.33386C6.89253 7.33414 6.89225 7.33443 6.89197 7.33471C6.89169 7.33499 6.8914 7.33528 6.89112 7.33556C6.89084 7.33584 6.89056 7.33612 6.89028 7.3364C6.89 7.33668 6.88972 7.33696 6.88944 7.33724C6.88916 7.33752 6.88888 7.3378 6.8886 7.33808C6.88832 7.33836 6.88805 7.33864 6.88777 7.33891C6.88749 7.33919 6.88722 7.33947 6.88694 7.33975C6.88666 7.34002 6.88639 7.3403 6.88611 7.34057C6.88584 7.34085 6.88556 7.34112 6.88529 7.3414C6.88501 7.34167 6.88474 7.34195 6.88447 7.34222C6.88419 7.34249 6.88392 7.34277 6.88365 7.34304C6.88338 7.34331 6.88311 7.34358 6.88283 7.34386C6.88256 7.34413 6.88229 7.3444 6.88202 7.34467C6.88175 7.34494 6.88148 7.34521 6.88122 7.34548C6.88095 7.34575 6.88068 7.34601 6.88041 7.34628C6.88014 7.34655 6.87988 7.34682 6.87961 7.34709C6.87934 7.34735 6.87908 7.34762 6.87881 7.34789C6.87854 7.34815 6.87828 7.34842 6.87801 7.34868C6.87775 7.34895 6.87749 7.34921 6.87722 7.34947C6.87696 7.34974 6.8767 7.35 6.87643 7.35026C6.87617 7.35053 6.87591 7.35079 6.87565 7.35105C6.87539 7.35131 6.87513 7.35157 6.87487 7.35183C6.87461 7.35209 6.87435 7.35235 6.87409 7.35261C6.87383 7.35287 6.87357 7.35313 6.87331 7.35339C6.87305 7.35365 6.8728 7.35391 6.87254 7.35416C6.87228 7.35442 6.87203 7.35468 6.87177 7.35493C6.87151 7.35519 6.87126 7.35545 6.871 7.3557C6.87075 7.35596 6.8705 7.35621 6.87024 7.35646C6.86999 7.35672 6.86974 7.35697 6.86948 7.35722C6.86923 7.35748 6.86898 7.35773 6.86873 7.35798C6.86848 7.35823 6.86823 7.35848 6.86797 7.35873C6.86772 7.35898 6.86748 7.35923 6.86723 7.35948C6.86698 7.35973 6.86673 7.35998 6.86648 7.36023C6.86623 7.36048 6.86598 7.36073 6.86574 7.36097C6.86549 7.36122 6.86525 7.36147 6.865 7.36171C6.86475 7.36196 6.86451 7.3622 6.86426 7.36245C6.86402 7.36269 6.86378 7.36294 6.86353 7.36318C6.86329 7.36343 6.86305 7.36367 6.8628 7.36391C6.86256 7.36415 6.86232 7.3644 6.86208 7.36464C6.86184 7.36488 6.8616 7.36512 6.86136 7.36536C6.86112 7.3656 6.86088 7.36584 6.86064 7.36608C6.8604 7.36632 6.86016 7.36656 6.85993 7.36679C6.85969 7.36703 6.85945 7.36727 6.85921 7.36751C6.85898 7.36774 6.85874 7.36798 6.85851 7.36821C6.85827 7.36845 6.85804 7.36868 6.8578 7.36892C6.85757 7.36915 6.85733 7.36939 6.8571 7.36962C6.85687 7.36985 6.85664 7.37009 6.8564 7.37032C6.85617 7.37055 6.85594 7.37078 6.85571 7.37101C6.85548 7.37124 6.85525 7.37147 6.85502 7.3717C6.85479 7.37193 6.85456 7.37216 6.85434 7.37239C6.85411 7.37262 6.85388 7.37285 6.85365 7.37307C6.85343 7.3733 6.8532 7.37353 6.85297 7.37375C6.85275 7.37398 6.85252 7.37421 6.8523 7.37443C6.85207 7.37466 6.85185 7.37488 6.85163 7.3751C6.8514 7.37533 6.85118 7.37555 6.85096 7.37577C6.85074 7.376 6.85051 7.37622 6.85029 7.37644C6.85007 7.37666 6.84985 7.37688 6.84963 7.3771C6.84941 7.37732 6.84919 7.37754 6.84897 7.37776C6.84876 7.37798 6.84854 7.3782 6.84832 7.37841C6.8481 7.37863 6.84789 7.37885 6.84767 7.37906C6.84745 7.37928 6.84724 7.3795 6.84702 7.37971C6.84681 7.37993 6.84659 7.38014 6.84638 7.38035C6.84617 7.38057 6.84595 7.38078 6.84574 7.38099C6.84553 7.38121 6.84532 7.38142 6.84511 7.38163C6.84489 7.38184 6.84468 7.38205 6.84447 7.38226C6.84426 7.38247 6.84405 7.38268 6.84385 7.38289C6.84364 7.3831 6.84343 7.38331 6.84322 7.38352C6.84301 7.38373 6.84281 7.38393 6.8426 7.38414C6.8424 7.38435 6.84219 7.38455 6.84198 7.38476C6.84178 7.38496 6.84158 7.38517 6.84137 7.38537C6.84117 7.38557 6.84096 7.38578 6.84076 7.38598C6.84056 7.38618 6.84036 7.38638 6.84016 7.38659C6.83996 7.38679 6.83976 7.38699 6.83956 7.38719C6.83935 7.38739 6.83916 7.38759 6.83896 7.38779C6.83876 7.38799 6.83856 7.38818 6.83836 7.38838C6.83817 7.38858 6.83797 7.38878 6.83777 7.38897C6.83758 7.38917 6.83738 7.38937 6.83719 7.38956C6.83699 7.38976 6.8368 7.38995 6.8366 7.39014C6.83641 7.39034 6.83622 7.39053 6.83603 7.39072C6.83583 7.39092 6.83564 7.39111 6.83545 7.3913C6.83526 7.39149 6.83507 7.39168 6.83488 7.39187C6.83469 7.39206 6.8345 7.39225 6.83431 7.39244C6.83412 7.39263 6.83394 7.39281 6.83375 7.393C6.83356 7.39319 6.83338 7.39338 6.83319 7.39356C6.833 7.39375 6.83282 7.39393 6.83263 7.39412C6.83245 7.3943 6.83227 7.39449 6.83208 7.39467C6.8319 7.39485 6.83172 7.39504 6.83154 7.39522C6.83135 7.3954 6.83117 7.39558 6.83099 7.39576C6.83081 7.39594 6.83063 7.39612 6.83045 7.3963C6.83027 7.39648 6.83009 7.39666 6.82992 7.39684C6.82974 7.39702 6.82956 7.3972 6.82938 7.39737C6.82921 7.39755 6.82903 7.39772 6.82886 7.3979C6.82868 7.39808 6.82851 7.39825 6.82833 7.39842C6.82816 7.3986 6.82799 7.39877 6.82781 7.39894C6.82764 7.39912 6.82747 7.39929 6.8273 7.39946C6.82713 7.39963 6.82696 7.3998 6.82679 7.39997C6.82662 7.40014 6.82645 7.40031 6.82628 7.40048C6.82611 7.40065 6.82594 7.40082 6.82578 7.40099C6.82561 7.40115 6.82544 7.40132 6.82528 7.40149C6.82511 7.40165 6.82494 7.40182 6.82478 7.40198C6.82462 7.40215 6.82445 7.40231 6.82429 7.40247C6.82413 7.40264 6.82396 7.4028 6.8238 7.40296C6.82364 7.40312 6.82348 7.40329 6.82332 7.40345C6.82316 7.40361 6.823 7.40377 6.82284 7.40393C6.82268 7.40409 6.82252 7.40424 6.82236 7.4044C6.82221 7.40456 6.82205 7.40472 6.82189 7.40487C6.82174 7.40503 6.82158 7.40519 6.82143 7.40534C6.82127 7.4055 6.82112 7.40565 6.82096 7.4058C6.82081 7.40596 6.82066 7.40611 6.82051 7.40626C6.82035 7.40641 6.8202 7.40657 6.82005 7.40672C6.8199 7.40687 6.81975 7.40702 6.8196 7.40717C6.81945 7.40732 6.8193 7.40747 6.81915 7.40761C6.81901 7.40776 6.81886 7.40791 6.81871 7.40806C6.81857 7.4082 6.81842 7.40835 6.81828 7.4085C6.81813 7.40864 6.81799 7.40879 6.81784 7.40893C6.8177 7.40907 6.81756 7.40922 6.81741 7.40936C6.81727 7.4095 6.81713 7.40964 6.81699 7.40978C6.81685 7.40992 6.81671 7.41007 6.81657 7.41021C6.81643 7.41035 6.81629 7.41048 6.81615 7.41062C6.81601 7.41076 6.81588 7.4109 6.81574 7.41103C6.8156 7.41117 6.81547 7.41131 6.81533 7.41144C6.8152 7.41158 6.81506 7.41171 6.81493 7.41185C6.81479 7.41198 6.81466 7.41211 6.81453 7.41225C6.8144 7.41238 6.81426 7.41251 6.81413 7.41264C6.814 7.41277 6.81387 7.4129 6.81374 7.41303C6.81361 7.41316 6.81348 7.41329 6.81336 7.41342C6.81323 7.41355 6.8131 7.41368 6.81297 7.4138C6.81285 7.41393 6.81272 7.41406 6.8126 7.41418C6.81247 7.41431 6.81235 7.41443 6.81222 7.41455C6.8121 7.41468 6.81198 7.4148 6.81185 7.41492C6.81173 7.41505 6.81161 7.41517 6.81149 7.41529C6.81137 7.41541 6.81125 7.41553 6.81113 7.41565C6.81101 7.41577 6.81089 7.41589 6.81077 7.41601C6.81066 7.41612 6.81054 7.41624 6.81042 7.41636C6.81031 7.41647 6.81019 7.41659 6.81008 7.4167C6.80996 7.41682 6.80985 7.41693 6.80973 7.41705C6.80962 7.41716 6.80951 7.41727 6.8094 7.41739C6.80928 7.4175 6.80917 7.41761 6.80906 7.41772C6.80895 7.41783 6.80884 7.41794 6.80873 7.41805C6.80862 7.41816 6.80852 7.41827 6.80841 7.41838C6.8083 7.41848 6.80819 7.41859 6.80809 7.4187C6.80798 7.4188 6.80788 7.41891 6.80777 7.41901C6.80767 7.41912 6.80756 7.41922 6.80746 7.41932C6.80736 7.41943 6.80726 7.41953 6.80715 7.41963C6.80705 7.41973 6.80695 7.41983 6.80685 7.41993C6.80675 7.42003 6.80665 7.42013 6.80655 7.42023C6.80646 7.42033 6.80636 7.42043 6.80626 7.42052C6.80616 7.42062 6.80607 7.42072 6.80597 7.42081C6.80588 7.42091 6.80578 7.421 6.80569 7.4211C6.80559 7.42119 6.8055 7.42129 6.80541 7.42138C6.80532 7.42147 6.80522 7.42156 6.80513 7.42165C6.80504 7.42174 6.80495 7.42183 6.80486 7.42192C6.80477 7.42201 6.80469 7.4221 6.8046 7.42219C6.80451 7.42228 6.80442 7.42237 6.80434 7.42245C6.80425 7.42254 6.80416 7.42262 6.80408 7.42271C6.804 7.42279 6.80391 7.42288 6.80383 7.42296C6.80375 7.42304 6.80366 7.42313 6.80358 7.42321C6.8035 7.42329 6.80342 7.42337 6.80334 7.42345C6.80326 7.42353 6.80318 7.42361 6.8031 7.42369C6.80302 7.42377 6.80294 7.42385 6.80287 7.42392C6.80279 7.424 6.80271 7.42408 6.80264 7.42415C6.80256 7.42423 6.80249 7.4243 6.80241 7.42438C6.80234 7.42445 6.80227 7.42452 6.8022 7.4246C6.80212 7.42467 6.80205 7.42474 6.80198 7.42481C6.80191 7.42488 6.80184 7.42495 6.80177 7.42502C6.8017 7.42509 6.80163 7.42516 6.80157 7.42523C6.8015 7.42529 6.80143 7.42536 6.80137 7.42543C6.8013 7.42549 6.80123 7.42556 6.80117 7.42562C6.80111 7.42569 6.80104 7.42575 6.80098 7.42581C6.80092 7.42588 6.80085 7.42594 6.80079 7.426C6.80073 7.42606 6.80067 7.42612 6.80061 7.42618C6.80055 7.42624 6.80049 7.4263 6.80044 7.42636C6.80038 7.42642 6.80032 7.42647 6.80026 7.42653C6.80021 7.42659 6.80015 7.42664 6.8001 7.4267C6.80004 7.42675 6.79999 7.42681 6.79994 7.42686C6.79988 7.42691 6.79983 7.42696 6.79978 7.42702C6.79973 7.42707 6.79968 7.42712 6.79963 7.42717C6.79958 7.42722 6.79953 7.42727 6.79948 7.42732C6.79943 7.42736 6.79938 7.42741 6.79934 7.42746C6.79929 7.42751 6.79924 7.42755 6.7992 7.4276C6.79915 7.42764 6.79911 7.42769 6.79906 7.42773C6.79902 7.42777 6.79898 7.42782 6.79894 7.42786C6.79889 7.4279 6.79885 7.42794 6.79881 7.42798C6.79877 7.42802 6.79873 7.42806 6.7987 7.4281C6.79866 7.42814 6.79862 7.42818 6.79858 7.42821C6.79854 7.42825 6.79851 7.42829 6.79847 7.42832C6.79844 7.42836 6.7984 7.42839 6.79837 7.42843C6.79834 7.42846 6.7983 7.42849 6.79827 7.42852C6.79824 7.42856 6.79821 7.42859 6.79818 7.42862C6.79815 7.42865 6.79812 7.42868 6.79809 7.42871C6.79806 7.42874 6.79803 7.42876 6.79801 7.42879C6.79798 7.42882 6.79795 7.42884 6.79793 7.42887C6.7979 7.42889 6.79788 7.42892 6.79785 7.42894C6.79783 7.42897 6.79781 7.42899 6.79778 7.42901C6.79776 7.42903 6.79774 7.42905 6.79772 7.42908C6.7977 7.4291 6.79768 7.42911 6.79766 7.42913C6.79764 7.42915 6.79763 7.42917 6.79761 7.42919C6.79759 7.4292 6.79758 7.42922 6.79756 7.42924C6.79755 7.42925 6.79753 7.42927 6.79752 7.42928C6.7975 7.42929 6.79749 7.42931 6.79748 7.42932C6.79747 7.42933 6.79746 7.42934 6.79745 7.42935C6.79744 7.42936 6.79743 7.42937 6.79742 7.42938C6.79741 7.42939 6.7974 7.4294 6.79739 7.4294C6.79739 7.42941 6.79738 7.42942 6.79738 7.42942C6.79737 7.42943 6.79737 7.42943 6.79736 7.42943C6.79736 7.42944 6.79736 7.42944 6.79736 7.42944C6.79735 7.42944 6.79735 7.42944 8.92 9.54944C11.0426 11.6694 11.0426 11.6694 11.0426 11.6694C11.0427 11.6694 11.0427 11.6694 11.0427 11.6694C11.0427 11.6694 11.0427 11.6694 11.0427 11.6694C11.0427 11.6694 11.0427 11.6694 11.0427 11.6694C11.0427 11.6694 11.0427 11.6694 11.0427 11.6694C11.0427 11.6694 11.0427 11.6693 11.0427 11.6693C11.0427 11.6693 11.0428 11.6693 11.0428 11.6693C11.0428 11.6693 11.0428 11.6693 11.0428 11.6693C11.0428 11.6693 11.0428 11.6692 11.0429 11.6692C11.0429 11.6692 11.0429 11.6692 11.0429 11.6692C11.0429 11.6692 11.0429 11.6691 11.043 11.6691C11.043 11.6691 11.043 11.6691 11.043 11.6691C11.043 11.669 11.0431 11.669 11.0431 11.669C11.0431 11.669 11.0431 11.669 11.0431 11.6689C11.0432 11.6689 11.0432 11.6689 11.0432 11.6689C11.0432 11.6688 11.0433 11.6688 11.0433 11.6688C11.0433 11.6687 11.0434 11.6687 11.0434 11.6687C11.0434 11.6687 11.0434 11.6686 11.0435 11.6686C11.0435 11.6686 11.0435 11.6685 11.0436 11.6685C11.0436 11.6685 11.0436 11.6684 11.0437 11.6684C11.0437 11.6684 11.0437 11.6683 11.0438 11.6683C11.0438 11.6683 11.0438 11.6682 11.0439 11.6682C11.0439 11.6682 11.044 11.6681 11.044 11.6681C11.044 11.668 11.0441 11.668 11.0441 11.668C11.0441 11.6679 11.0442 11.6679 11.0442 11.6678C11.0443 11.6678 11.0443 11.6678 11.0444 11.6677C11.0444 11.6677 11.0444 11.6676 11.0445 11.6676C11.0445 11.6675 11.0446 11.6675 11.0446 11.6674C11.0447 11.6674 11.0447 11.6674 11.0448 11.6673C11.0448 11.6673 11.0449 11.6672 11.0449 11.6672C11.045 11.6671 11.045 11.6671 11.0451 11.667C11.0451 11.667 11.0452 11.6669 11.0452 11.6668C11.0453 11.6668 11.0453 11.6667 11.0454 11.6667C11.0454 11.6666 11.0455 11.6666 11.0456 11.6665C11.0456 11.6665 11.0457 11.6664 11.0457 11.6663C11.0458 11.6663 11.0458 11.6662 11.0459 11.6662C11.046 11.6661 11.046 11.666 11.0461 11.666C11.0461 11.6659 11.0462 11.6659 11.0463 11.6658C11.0463 11.6657 11.0464 11.6657 11.0465 11.6656C11.0465 11.6655 11.0466 11.6655 11.0467 11.6654C11.0467 11.6653 11.0468 11.6653 11.0469 11.6652C11.0469 11.6651 11.047 11.6651 11.0471 11.665C11.0471 11.6649 11.0472 11.6649 11.0473 11.6648C11.0473 11.6647 11.0474 11.6647 11.0475 11.6646C11.0476 11.6645 11.0476 11.6644 11.0477 11.6644C11.0478 11.6643 11.0479 11.6642 11.0479 11.6641C11.048 11.6641 11.0481 11.664 11.0482 11.6639C11.0482 11.6638 11.0483 11.6638 11.0484 11.6637C11.0485 11.6636 11.0486 11.6635 11.0486 11.6634C11.0487 11.6634 11.0488 11.6633 11.0489 11.6632C11.049 11.6631 11.049 11.663 11.0491 11.6629C11.0492 11.6629 11.0493 11.6628 11.0494 11.6627C11.0495 11.6626 11.0495 11.6625 11.0496 11.6624C11.0497 11.6624 11.0498 11.6623 11.0499 11.6622C11.05 11.6621 11.0501 11.662 11.0502 11.6619C11.0502 11.6618 11.0503 11.6617 11.0504 11.6616C11.0505 11.6615 11.0506 11.6615 11.0507 11.6614C11.0508 11.6613 11.0509 11.6612 11.051 11.6611C11.0511 11.661 11.0512 11.6609 11.0513 11.6608C11.0514 11.6607 11.0515 11.6606 11.0516 11.6605C11.0517 11.6604 11.0517 11.6603 11.0518 11.6602C11.0519 11.6601 11.052 11.66 11.0521 11.6599C11.0522 11.6598 11.0523 11.6597 11.0524 11.6596C11.0525 11.6595 11.0527 11.6594 11.0528 11.6593C11.0529 11.6592 11.053 11.6591 11.0531 11.659C11.0532 11.6589 11.0533 11.6588 11.0534 11.6587C11.0535 11.6586 11.0536 11.6585 11.0537 11.6584C11.0538 11.6583 11.0539 11.6581 11.054 11.658C11.0541 11.6579 11.0542 11.6578 11.0544 11.6577C11.0545 11.6576 11.0546 11.6575 11.0547 11.6574C11.0548 11.6573 11.0549 11.6571 11.055 11.657C11.0551 11.6569 11.0553 11.6568 11.0554 11.6567C11.0555 11.6566 11.0556 11.6565 11.0557 11.6563C11.0558 11.6562 11.0559 11.6561 11.0561 11.656C11.0562 11.6559 11.0563 11.6558 11.0564 11.6556C11.0565 11.6555 11.0567 11.6554 11.0568 11.6553C11.0569 11.6552 11.057 11.655 11.0571 11.6549C11.0573 11.6548 11.0574 11.6547 11.0575 11.6545C11.0576 11.6544 11.0578 11.6543 11.0579 11.6542C11.058 11.654 11.0581 11.6539 11.0583 11.6538C11.0584 11.6537 11.0585 11.6535 11.0587 11.6534C11.0588 11.6533 11.0589 11.6531 11.059 11.653C11.0592 11.6529 11.0593 11.6528 11.0594 11.6526C11.0596 11.6525 11.0597 11.6524 11.0598 11.6522C11.06 11.6521 11.0601 11.652 11.0602 11.6518C11.0604 11.6517 11.0605 11.6516 11.0606 11.6514C11.0608 11.6513 11.0609 11.6512 11.061 11.651C11.0612 11.6509 11.0613 11.6507 11.0614 11.6506C11.0616 11.6505 11.0617 11.6503 11.0619 11.6502C11.062 11.6501 11.0621 11.6499 11.0623 11.6498C11.0624 11.6496 11.0626 11.6495 11.0627 11.6493C11.0628 11.6492 11.063 11.6491 11.0631 11.6489C11.0633 11.6488 11.0634 11.6486 11.0636 11.6485C11.0637 11.6483 11.0639 11.6482 11.064 11.648C11.0642 11.6479 11.0643 11.6477 11.0644 11.6476C11.0646 11.6475 11.0647 11.6473 11.0649 11.6472C11.065 11.647 11.0652 11.6469 11.0653 11.6467C11.0655 11.6466 11.0656 11.6464 11.0658 11.6462C11.066 11.6461 11.0661 11.6459 11.0663 11.6458C11.0664 11.6456 11.0666 11.6455 11.0667 11.6453C11.0669 11.6452 11.067 11.645 11.0672 11.6449C11.0673 11.6447 11.0675 11.6445 11.0677 11.6444C11.0678 11.6442 11.068 11.6441 11.0681 11.6439C11.0683 11.6438 11.0685 11.6436 11.0686 11.6434C11.0688 11.6433 11.0689 11.6431 11.0691 11.6429C11.0693 11.6428 11.0694 11.6426 11.0696 11.6425C11.0697 11.6423 11.0699 11.6421 11.0701 11.642C11.0702 11.6418 11.0704 11.6416 11.0706 11.6415C11.0707 11.6413 11.0709 11.6411 11.0711 11.641C11.0712 11.6408 11.0714 11.6406 11.0716 11.6405C11.0717 11.6403 11.0719 11.6401 11.0721 11.64C11.0722 11.6398 11.0724 11.6396 11.0726 11.6394C11.0728 11.6393 11.0729 11.6391 11.0731 11.6389C11.0733 11.6388 11.0735 11.6386 11.0736 11.6384C11.0738 11.6382 11.074 11.6381 11.0742 11.6379C11.0743 11.6377 11.0745 11.6375 11.0747 11.6374C11.0749 11.6372 11.075 11.637 11.0752 11.6368C11.0754 11.6366 11.0756 11.6365 11.0757 11.6363C11.0759 11.6361 11.0761 11.6359 11.0763 11.6357C11.0765 11.6356 11.0766 11.6354 11.0768 11.6352C11.077 11.635 11.0772 11.6348 11.0774 11.6347C11.0776 11.6345 11.0777 11.6343 11.0779 11.6341C11.0781 11.6339 11.0783 11.6337 11.0785 11.6335C11.0787 11.6334 11.0789 11.6332 11.079 11.633C11.0792 11.6328 11.0794 11.6326 11.0796 11.6324C11.0798 11.6322 11.08 11.632 11.0802 11.6319C11.0804 11.6317 11.0806 11.6315 11.0807 11.6313C11.0809 11.6311 11.0811 11.6309 11.0813 11.6307C11.0815 11.6305 11.0817 11.6303 11.0819 11.6301C11.0821 11.6299 11.0823 11.6297 11.0825 11.6295C11.0827 11.6294 11.0829 11.6292 11.0831 11.629C11.0833 11.6288 11.0835 11.6286 11.0837 11.6284C11.0839 11.6282 11.0841 11.628 11.0843 11.6278C11.0844 11.6276 11.0846 11.6274 11.0848 11.6272C11.085 11.627 11.0852 11.6268 11.0855 11.6266C11.0857 11.6264 11.0859 11.6262 11.0861 11.626C11.0863 11.6258 11.0865 11.6256 11.0867 11.6254C11.0869 11.6252 11.0871 11.6249 11.0873 11.6247C11.0875 11.6245 11.0877 11.6243 11.0879 11.6241C11.0881 11.6239 11.0883 11.6237 11.0885 11.6235C11.0887 11.6233 11.0889 11.6231 11.0891 11.6229C11.0893 11.6227 11.0896 11.6225 11.0898 11.6223C11.09 11.622 11.0902 11.6218 11.0904 11.6216C11.0906 11.6214 11.0908 11.6212 11.091 11.621C11.0912 11.6208 11.0915 11.6206 11.0917 11.6203C11.0919 11.6201 11.0921 11.6199 11.0923 11.6197C11.0925 11.6195 11.0927 11.6193 11.093 11.6191C11.0932 11.6188 11.0934 11.6186 11.0936 11.6184C11.0938 11.6182 11.094 11.618 11.0943 11.6177C11.0945 11.6175 11.0947 11.6173 11.0949 11.6171C11.0951 11.6169 11.0954 11.6166 11.0956 11.6164C11.0958 11.6162 11.096 11.616 11.0963 11.6158C11.0965 11.6155 11.0967 11.6153 11.0969 11.6151C11.0971 11.6149 11.0974 11.6146 11.0976 11.6144C11.0978 11.6142 11.098 11.614 11.0983 11.6137C11.0985 11.6135 11.0987 11.6133 11.0989 11.6131C11.0992 11.6128 11.0994 11.6126 11.0996 11.6124C11.0999 11.6121 11.1001 11.6119 11.1003 11.6117C11.1005 11.6115 11.1008 11.6112 11.101 11.611C11.1012 11.6108 11.1015 11.6105 11.1017 11.6103C11.1019 11.6101 11.1022 11.6098 11.1024 11.6096C11.1026 11.6094 11.1029 11.6091 11.1031 11.6089C11.1033 11.6087 11.1036 11.6084 11.1038 11.6082C11.104 11.608 11.1043 11.6077 11.1045 11.6075C11.1047 11.6073 11.105 11.607 11.1052 11.6068C11.1055 11.6065 11.1057 11.6063 11.1059 11.6061C11.1062 11.6058 11.1064 11.6056 11.1067 11.6053C11.1069 11.6051 11.1071 11.6049 11.1074 11.6046C11.1076 11.6044 11.1079 11.6041 11.1081 11.6039C11.1083 11.6037 11.1086 11.6034 11.1088 11.6032C11.1091 11.6029 11.1093 11.6027 11.1096 11.6024C11.1098 11.6022 11.11 11.6019 11.1103 11.6017C11.1105 11.6015 11.1108 11.6012 11.111 11.601C11.1113 11.6007 11.1115 11.6005 11.1118 11.6002C11.112 11.6 11.1123 11.5997 11.1125 11.5995C11.1128 11.5992 11.113 11.599 11.1133 11.5987C11.1135 11.5985 11.1138 11.5982 11.114 11.598C11.1143 11.5977 11.1145 11.5975 11.1148 11.5972C11.115 11.597 11.1153 11.5967 11.1155 11.5965C11.1158 11.5962 11.116 11.5959 11.1163 11.5957C11.1166 11.5954 11.1168 11.5952 11.1171 11.5949C11.1173 11.5947 11.1176 11.5944 11.1178 11.5942C11.1181 11.5939 11.1183 11.5936 11.1186 11.5934C11.1189 11.5931 11.1191 11.5929 11.1194 11.5926C11.1196 11.5923 11.1199 11.5921 11.1202 11.5918C11.1204 11.5916 11.1207 11.5913 11.1209 11.591C11.1212 11.5908 11.1215 11.5905 11.1217 11.5903C11.122 11.59 11.1223 11.5897 11.1225 11.5895C11.1228 11.5892 11.123 11.5889 11.1233 11.5887C11.1236 11.5884 11.1238 11.5881 11.1241 11.5879C11.1244 11.5876 11.1246 11.5873 11.1249 11.5871C11.1252 11.5868 11.1254 11.5865 11.1257 11.5863C11.126 11.586 11.1262 11.5857 11.1265 11.5855C11.1268 11.5852 11.127 11.5849 11.1273 11.5847C11.1276 11.5844 11.1279 11.5841 11.1281 11.5838C11.1284 11.5836 11.1287 11.5833 11.1289 11.583C11.1292 11.5828 11.1295 11.5825 11.1298 11.5822C11.13 11.5819 11.1303 11.5817 11.1306 11.5814C11.1309 11.5811 11.1311 11.5808 11.1314 11.5806C11.1317 11.5803 11.132 11.58 11.1322 11.5797C11.1325 11.5795 11.1328 11.5792 11.1331 11.5789C11.1333 11.5786 11.1336 11.5783 11.1339 11.5781C11.1342 11.5778 11.1345 11.5775 11.1347 11.5772C11.135 11.5769 11.1353 11.5767 11.1356 11.5764C11.1359 11.5761 11.1361 11.5758 11.1364 11.5755C11.1367 11.5753 11.137 11.575 11.1373 11.5747C11.1375 11.5744 11.1378 11.5741 11.1381 11.5738C11.1384 11.5736 11.1387 11.5733 11.139 11.573C11.1392 11.5727 11.1395 11.5724 11.1398 11.5721C11.1401 11.5719 11.1404 11.5716 11.1407 11.5713C11.141 11.571 11.1412 11.5707 11.1415 11.5704C11.1418 11.5701 11.1421 11.5698 11.1424 11.5696C11.1427 11.5693 11.143 11.569 11.1433 11.5687C11.1436 11.5684 11.1438 11.5681 11.1441 11.5678C11.1444 11.5675 11.1447 11.5672 11.145 11.5669C11.1453 11.5666 11.1456 11.5664 11.1459 11.5661C11.1462 11.5658 11.1465 11.5655 11.1468 11.5652C11.1471 11.5649 11.1474 11.5646 11.1476 11.5643C11.1479 11.564 11.1482 11.5637 11.1485 11.5634C11.1488 11.5631 11.1491 11.5628 11.1494 11.5625C11.1497 11.5622 11.15 11.5619 11.1503 11.5616C11.1506 11.5613 11.1509 11.561 11.1512 11.5607C11.1515 11.5604 11.1518 11.5601 11.1521 11.5598C11.1524 11.5595 11.1527 11.5592 11.153 11.5589C11.1533 11.5586 11.1536 11.5583 11.1539 11.558C11.1542 11.5577 11.1545 11.5574 11.1548 11.5571C11.1551 11.5568 11.1554 11.5565 11.1557 11.5562C11.156 11.5559 11.1563 11.5556 11.1566 11.5553C11.1569 11.555 11.1572 11.5547 11.1575 11.5544C11.1579 11.5541 11.1582 11.5538 11.1585 11.5535C11.1588 11.5532 11.1591 11.5529 11.1594 11.5525C11.1597 11.5522 11.16 11.5519 11.1603 11.5516C11.1606 11.5513 11.1609 11.551 11.1612 11.5507C11.1615 11.5504 11.1618 11.5501 11.1622 11.5498C11.1625 11.5495 11.1628 11.5491 11.1631 11.5488C11.1634 11.5485 11.1637 11.5482 11.164 11.5479C11.1643 11.5476 11.1646 11.5473 11.165 11.547C11.1653 11.5466 11.1656 11.5463 11.1659 11.546C11.1662 11.5457 11.1665 11.5454 11.1668 11.5451C11.1672 11.5448 11.1675 11.5444 11.1678 11.5441C11.1681 11.5438 11.1684 11.5435 11.1687 11.5432C11.1691 11.5429 11.1694 11.5425 11.1697 11.5422C11.17 11.5419 11.1703 11.5416 11.1706 11.5413C11.171 11.541 11.1713 11.5406 11.1716 11.5403C11.1719 11.54 11.1722 11.5397 11.1726 11.5394C11.1729 11.539 11.1732 11.5387 11.1735 11.5384C11.1738 11.5381 11.1742 11.5378 11.1745 11.5374C11.1748 11.5371 11.1751 11.5368 11.1754 11.5365C11.1758 11.5361 11.1761 11.5358 11.1764 11.5355C11.1767 11.5352 11.1771 11.5348 11.1774 11.5345C11.1777 11.5342 11.178 11.5339 11.1784 11.5335C11.1787 11.5332 11.179 11.5329 11.1793 11.5326C11.1797 11.5322 11.18 11.5319 11.1803 11.5316C11.1806 11.5313 11.181 11.5309 11.1813 11.5306C11.1816 11.5303 11.182 11.5299 11.1823 11.5296C11.1826 11.5293 11.1829 11.529 11.1833 11.5286C11.1836 11.5283 11.1839 11.528 11.1843 11.5276C11.1846 11.5273 11.1849 11.527 11.1853 11.5266C11.1856 11.5263 11.1859 11.526 11.1862 11.5256C11.1866 11.5253 11.1869 11.525 11.1872 11.5246C11.1876 11.5243 11.1879 11.524 11.1882 11.5236C11.1886 11.5233 11.1889 11.523 11.1892 11.5226C11.1896 11.5223 11.1899 11.522 11.1903 11.5216C11.1906 11.5213 11.1909 11.521 11.1913 11.5206C11.1916 11.5203 11.1919 11.52 11.1923 11.5196C11.1926 11.5193 11.1929 11.5189 11.1933 11.5186C11.1936 11.5183 11.194 11.5179 11.1943 11.5176C11.1946 11.5172 11.195 11.5169 11.1953 11.5166C11.1957 11.5162 11.196 11.5159 11.1963 11.5155C11.1967 11.5152 11.197 11.5149 11.1974 11.5145C11.1977 11.5142 11.198 11.5138 11.1984 11.5135C11.1987 11.5132 11.1991 11.5128 11.1994 11.5125C11.1998 11.5121 11.2001 11.5118 11.2004 11.5114C11.2008 11.5111 11.2011 11.5107 11.2015 11.5104C11.2018 11.5101 11.2022 11.5097 11.2025 11.5094C11.2029 11.509 11.2032 11.5087 11.2035 11.5083C11.2039 11.508 11.2042 11.5076 11.2046 11.5073C11.2049 11.5069 11.2053 11.5066 11.2056 11.5062C11.206 11.5059 11.2063 11.5055 11.2067 11.5052C11.207 11.5048 11.2074 11.5045 11.2077 11.5041C11.2081 11.5038 11.2084 11.5034 11.2088 11.5031C11.2091 11.5027 11.2095 11.5024 11.2098 11.502C11.2102 11.5017 11.2105 11.5013 11.2109 11.501C11.2112 11.5006 11.2116 11.5003 11.2119 11.4999C11.2123 11.4996 11.2126 11.4992 11.213 11.4989C11.2133 11.4985 11.2137 11.4982 11.214 11.4978C11.2144 11.4975 11.2148 11.4971 11.2151 11.4967C11.2155 11.4964 11.2158 11.496 11.2162 11.4957C11.2165 11.4953 11.2169 11.495 11.2172 11.4946C11.2176 11.4943 11.218 11.4939 11.2183 11.4935C11.2187 11.4932 11.219 11.4928 11.2194 11.4925C11.2197 11.4921 11.2201 11.4918 11.2205 11.4914C11.2208 11.491 11.2212 11.4907 11.2215 11.4903C11.2219 11.49 11.2223 11.4896 11.2226 11.4892C11.223 11.4889 11.2233 11.4885 11.2237 11.4882C11.2241 11.4878 11.2244 11.4874 11.2248 11.4871C11.2251 11.4867 11.2255 11.4864 11.2259 11.486C11.2262 11.4856 11.2266 11.4853 11.2269 11.4849C11.2273 11.4845 11.2277 11.4842 11.228 11.4838C11.2284 11.4834 11.2288 11.4831 11.2291 11.4827C11.2295 11.4824 11.2299 11.482 11.2302 11.4816C11.2306 11.4813 11.231 11.4809 11.2313 11.4805C11.2317 11.4802 11.232 11.4798 11.2324 11.4794C11.2328 11.4791 11.2331 11.4787 11.2335 11.4783C11.2339 11.478 11.2342 11.4776 11.2346 11.4772C11.235 11.4769 11.2354 11.4765 11.2357 11.4761C11.2361 11.4757 11.2365 11.4754 11.2368 11.475C11.2372 11.4746 11.2376 11.4743 11.2379 11.4739C11.2383 11.4735 11.2387 11.4732 11.239 11.4728C11.2394 11.4724 11.2398 11.472 11.2402 11.4717C11.2405 11.4713 11.2409 11.4709 11.2413 11.4706C11.2416 11.4702 11.242 11.4698 11.2424 11.4694C11.2428 11.4691 11.2431 11.4687 11.2435 11.4683C11.2439 11.4679 11.2443 11.4676 11.2446 11.4672C11.245 11.4668 11.2454 11.4665 11.2457 11.4661C11.2461 11.4657 11.2465 11.4653 11.2469 11.465C11.2472 11.4646 11.2476 11.4642 11.248 11.4638C11.2484 11.4634 11.2487 11.4631 11.2491 11.4627C11.2495 11.4623 11.2499 11.4619 11.2503 11.4616C11.2506 11.4612 11.251 11.4608 11.2514 11.4604C11.2518 11.4601 11.2521 11.4597 11.2525 11.4593C11.2529 11.4589 11.2533 11.4585 11.2537 11.4582C11.254 11.4578 11.2544 11.4574 11.2548 11.457C11.2552 11.4566 11.2556 11.4563 11.2559 11.4559C11.2563 11.4555 11.2567 11.4551 11.2571 11.4547C11.2575 11.4544 11.2578 11.454 11.2582 11.4536C11.2586 11.4532 11.259 11.4528 11.2594 11.4524C11.2597 11.4521 11.2601 11.4517 11.2605 11.4513C11.2609 11.4509 11.2613 11.4505 11.2617 11.4501C11.262 11.4498 11.2624 11.4494 11.2628 11.449C11.2632 11.4486 11.2636 11.4482 11.264 11.4478C11.2643 11.4475 11.2647 11.4471 11.2651 11.4467C11.2655 11.4463 11.2659 11.4459 11.2663 11.4455C11.2667 11.4451 11.267 11.4447 11.2674 11.4444C11.2678 11.444 11.2682 11.4436 11.2686 11.4432C11.269 11.4428 11.2694 11.4424 11.2698 11.442C11.2701 11.4416 11.2705 11.4413 11.2709 11.4409C11.2713 11.4405 11.2717 11.4401 11.2721 11.4397C11.2725 11.4393 11.2729 11.4389 11.2733 11.4385C11.2736 11.4381 11.274 11.4378 11.2744 11.4374C11.2748 11.437 11.2752 11.4366 11.2756 11.4362C11.276 11.4358 11.2764 11.4354 11.2768 11.435C11.2772 11.4346 11.2775 11.4342 11.2779 11.4338C11.2783 11.4335 11.2787 11.4331 11.2791 11.4327C11.2795 11.4323 11.2799 11.4319 11.2803 11.4315C11.2807 11.4311 11.2811 11.4307 11.2815 11.4303C11.2819 11.4299 11.2823 11.4295 11.2826 11.4291C11.283 11.4287 11.2834 11.4283 11.2838 11.4279C11.2842 11.4275 11.2846 11.4272 11.285 11.4268C11.2854 11.4264 11.2858 11.426 11.2862 11.4256C11.2866 11.4252 11.287 11.4248 11.2874 11.4244C11.2878 11.424 11.2882 11.4236 11.2886 11.4232C11.289 11.4228 11.2894 11.4224 11.2898 11.422C11.2902 11.4216 11.2906 11.4212 11.291 11.4208C11.2914 11.4204 11.2918 11.42 11.2922 11.4196C11.2926 11.4192 11.2929 11.4188 11.2933 11.4184C11.2937 11.418 11.2941 11.4176 11.2945 11.4172C11.2949 11.4168 11.2953 11.4164 11.2957 11.416C11.2961 11.4156 11.2965 11.4152 11.2969 11.4148C11.2973 11.4144 11.2977 11.414 11.2981 11.4136C11.2985 11.4132 11.2989 11.4128 11.2993 11.4124C11.2997 11.412 11.3001 11.4116 11.3006 11.4112C11.301 11.4108 11.3014 11.4104 11.3018 11.41C11.3022 11.4096 11.3026 11.4092 11.303 11.4088C11.3034 11.4084 11.3038 11.408 11.3042 11.4076C11.3046 11.4072 11.305 11.4068 11.3054 11.4064C11.3058 11.406 11.3062 11.4056 11.3066 11.4052C11.307 11.4047 11.3074 11.4043 11.3078 11.4039C11.3082 11.4035 11.3086 11.4031 11.309 11.4027C11.3094 11.4023 11.3098 11.4019 11.3102 11.4015C11.3106 11.4011 11.3111 11.4007 11.3115 11.4003C11.3119 11.3999 11.3123 11.3995 11.3127 11.3991C11.3131 11.3987 11.3135 11.3982 11.3139 11.3978C11.3143 11.3974 11.3147 11.397 11.3151 11.3966C11.3155 11.3962 11.3159 11.3958 11.3163 11.3954C11.3167 11.395 11.3172 11.3946 11.3176 11.3942C11.318 11.3938 11.3184 11.3933 11.3188 11.3929C11.3192 11.3925 11.3196 11.3921 11.32 11.3917C11.3204 11.3913 11.3208 11.3909 11.3212 11.3905C11.3217 11.3901 11.3221 11.3897 11.3225 11.3892C11.3229 11.3888 11.3233 11.3884 11.3237 11.388C11.3241 11.3876 11.3245 11.3872 11.3249 11.3868C11.3254 11.3864 11.3258 11.386 11.3262 11.3855C11.3266 11.3851 11.327 11.3847 11.3274 11.3843C11.3278 11.3839 11.3282 11.3835 11.3286 11.3831C11.3291 11.3827 11.3295 11.3822 11.3299 11.3818C11.3303 11.3814 11.3307 11.381 11.3311 11.3806C11.3315 11.3802 11.332 11.3798 11.3324 11.3793C11.3328 11.3789 11.3332 11.3785 11.3336 11.3781C11.334 11.3777 11.3344 11.3773 11.3349 11.3769C11.3353 11.3764 11.3357 11.376 11.3361 11.3756C11.3365 11.3752 11.3369 11.3748 11.3373 11.3744C11.3378 11.374 11.3382 11.3735 11.3386 11.3731C11.339 11.3727 11.3394 11.3723 11.3398 11.3719C11.3403 11.3715 11.3407 11.371 11.3411 11.3706C11.3415 11.3702 11.3419 11.3698 11.3423 11.3694C11.3428 11.369 11.3432 11.3685 11.3436 11.3681C11.344 11.3677 11.3444 11.3673 11.3448 11.3669C11.3453 11.3664 11.3457 11.366 11.3461 11.3656C11.3465 11.3652 11.3469 11.3648 11.3473 11.3643C11.3478 11.3639 11.3482 11.3635 11.3486 11.3631C11.349 11.3627 11.3494 11.3623 11.3499 11.3618C11.3503 11.3614 11.3507 11.361 11.3511 11.3606C11.3515 11.3602 11.352 11.3597 11.3524 11.3593C11.3528 11.3589 11.3532 11.3585 11.3536 11.3581C11.3541 11.3576 11.3545 11.3572 11.3549 11.3568C11.3553 11.3564 11.3557 11.3559 11.3562 11.3555C11.3566 11.3551 11.357 11.3547 11.3574 11.3543C11.3578 11.3538 11.3583 11.3534 11.3587 11.353C11.3591 11.3526 11.3595 11.3521 11.36 11.3517C11.3604 11.3513 11.3608 11.3509 11.3612 11.3505C11.3616 11.35 11.3621 11.3496 11.3625 11.3492C11.3629 11.3488 11.3633 11.3483 11.3638 11.3479C11.3642 11.3475 11.3646 11.3471 11.365 11.3466C11.3654 11.3462 11.3659 11.3458 11.3663 11.3454C11.3667 11.345 11.3671 11.3445 11.3676 11.3441C11.368 11.3437 11.3684 11.3433 11.3688 11.3428C11.3693 11.3424 11.3697 11.342 11.3701 11.3416C11.3705 11.3411 11.371 11.3407 11.3714 11.3403C11.3718 11.3399 11.3722 11.3394 11.3727 11.339C11.3731 11.3386 11.3735 11.3381 11.3739 11.3377C11.3744 11.3373 11.3748 11.3369 11.3752 11.3364C11.3756 11.336 11.3761 11.3356 11.3765 11.3352C11.3769 11.3347 11.3773 11.3343 11.3778 11.3339C11.3782 11.3335 11.3786 11.333 11.3791 11.3326C11.3795 11.3322 11.3799 11.3317 11.3803 11.3313C11.3808 11.3309 11.3812 11.3305 11.3816 11.33C11.382 11.3296 11.3825 11.3292 11.3829 11.3288C11.3833 11.3283 11.3838 11.3279 11.3842 11.3275C11.3846 11.327 11.385 11.3266 11.3855 11.3262C11.3859 11.3258 11.3863 11.3253 11.3868 11.3249C11.3872 11.3245 11.3876 11.324 11.388 11.3236C11.3885 11.3232 11.3889 11.3227 11.3893 11.3223C11.3898 11.3219 11.3902 11.3215 11.3906 11.321C11.391 11.3206 11.3915 11.3202 11.3919 11.3197C11.3923 11.3193 11.3928 11.3189 11.3932 11.3185C11.3936 11.318 11.394 11.3176 11.3945 11.3172C11.3949 11.3167 11.3953 11.3163 11.3958 11.3159C11.3962 11.3154 11.3966 11.315 11.3971 11.3146C11.3975 11.3141 11.3979 11.3137 11.3984 11.3133C11.3988 11.3128 11.3992 11.3124 11.3996 11.312C11.4001 11.3116 11.4005 11.3111 11.4009 11.3107C11.4014 11.3103 11.4018 11.3098 11.4022 11.3094C11.4027 11.309 11.4031 11.3085 11.4035 11.3081C11.404 11.3077 11.4044 11.3072 11.4048 11.3068C11.4053 11.3064 11.4057 11.3059 11.4061 11.3055C11.4065 11.3051 11.407 11.3046 11.4074 11.3042C11.4078 11.3038 11.4083 11.3033 11.4087 11.3029C11.4091 11.3025 11.4096 11.302 11.41 11.3016C11.4104 11.3012 11.4109 11.3007 11.4113 11.3003C11.4117 11.2999 11.4122 11.2994 11.4126 11.299C11.413 11.2986 11.4135 11.2981 11.4139 11.2977C11.4143 11.2973 11.4148 11.2968 11.4152 11.2964C11.4156 11.296 11.4161 11.2955 11.4165 11.2951C11.4169 11.2947 11.4174 11.2942 11.4178 11.2938C11.4182 11.2934 11.4187 11.2929 11.4191 11.2925C11.4195 11.2921 11.42 11.2916 11.4204 11.2912C11.4208 11.2908 11.4213 11.2903 11.4217 11.2899C11.4222 11.2894 11.4226 11.289 11.423 11.2886C11.4235 11.2881 11.4239 11.2877 11.4243 11.2873C11.4248 11.2868 11.4252 11.2864 11.4256 11.286C11.4261 11.2855 11.4265 11.2851 11.4269 11.2847C11.4274 11.2842 11.4278 11.2838 11.4282 11.2833C11.4287 11.2829 11.4291 11.2825 11.4296 11.282C11.43 11.2816 11.4304 11.2812 11.4309 11.2807C11.4313 11.2803 11.4317 11.2799 11.4322 11.2794C11.4326 11.279 11.433 11.2786 11.4335 11.2781C11.4339 11.2777 11.4343 11.2772 11.4348 11.2768C11.4352 11.2764 11.4357 11.2759 11.4361 11.2755C11.4365 11.2751 11.437 11.2746 11.4374 11.2742C11.4378 11.2737 11.4383 11.2733 11.4387 11.2729C11.4391 11.2724 11.4396 11.272 11.44 11.2716C11.4405 11.2711 11.4409 11.2707 11.4413 11.2702C11.4418 11.2698 11.4422 11.2694 11.4426 11.2689C11.4431 11.2685 11.4435 11.2681 11.444 11.2676C11.4444 11.2672 11.4448 11.2667 11.4453 11.2663C11.4457 11.2659 11.4461 11.2654 11.4466 11.265C11.447 11.2646 11.4475 11.2641 11.4479 11.2637C11.4483 11.2632 11.4488 11.2628 11.4492 11.2624C11.4496 11.2619 11.4501 11.2615 11.4505 11.2611C11.451 11.2606 11.4514 11.2602 11.4518 11.2597C11.4523 11.2593 11.4527 11.2589 11.4531 11.2584C11.4536 11.258 11.454 11.2575 11.4545 11.2571C11.4549 11.2567 11.4553 11.2562 11.4558 11.2558C11.4562 11.2554 11.4566 11.2549 11.4571 11.2545C11.4575 11.254 11.458 11.2536 11.4584 11.2532C11.4588 11.2527 11.4593 11.2523 11.4597 11.2518C11.4602 11.2514 11.4606 11.251 11.461 11.2505C11.4615 11.2501 11.4619 11.2496 11.4623 11.2492C11.4628 11.2488 11.4632 11.2483 11.4637 11.2479C11.4641 11.2474 11.4645 11.247 11.465 11.2466C11.4654 11.2461 11.4659 11.2457 11.4663 11.2453C11.4667 11.2448 11.4672 11.2444 11.4676 11.2439C11.468 11.2435 11.4685 11.2431 11.4689 11.2426C11.4694 11.2422 11.4698 11.2417 11.4702 11.2413C11.4707 11.2409 11.4711 11.2404 11.4716 11.24C11.472 11.2395 11.4724 11.2391 11.4729 11.2387C11.4733 11.2382 11.4738 11.2378 11.4742 11.2373C11.4746 11.2369 11.4751 11.2365 11.4755 11.236C11.476 11.2356 11.4764 11.2351 11.4768 11.2347C11.4773 11.2343 11.4777 11.2338 11.4781 11.2334C11.4786 11.2329 11.479 11.2325 11.4795 11.2321C11.4799 11.2316 11.4803 11.2312 11.4808 11.2307C11.4812 11.2303 11.4817 11.2299 11.4821 11.2294C11.4825 11.229 11.483 11.2285 11.4834 11.2281C11.4839 11.2277 11.4843 11.2272 11.4847 11.2268C11.4852 11.2263 11.4856 11.2259 11.4861 11.2255C11.4865 11.225 11.4869 11.2246 11.4874 11.2241C11.4878 11.2237 11.4883 11.2233 11.4887 11.2228C11.4891 11.2224 11.4896 11.2219 11.49 11.2215C11.4904 11.2211 11.4909 11.2206 11.4913 11.2202C11.4918 11.2197 11.4922 11.2193 11.4926 11.2189L7.24735 6.97888ZM6.79735 7.42944C6.89925 7.32742 7.0617 7.20426 7.28341 7.11408C7.50324 7.02466 7.70168 7 7.84 7V13C9.01208 13 10.1446 12.5686 11.0426 11.6694L6.79735 7.42944ZM2.98 -1.60576C2.90857 -1.60576 2.18633 -1.63095 1.41202 -1.24331L4.09798 4.12191C3.50367 4.41944 2.96143 4.39424 2.98 4.39424V-1.60576ZM1.80525 -1.40639C1.1138 -1.17562 0.660336 -0.765805 0.487751 -0.609462C0.299179 -0.438635 0.0624421 -0.200182 -0.177647 0.0402071L4.06765 4.28019C4.20565 4.14202 4.30592 4.04165 4.38641 3.96231C4.46971 3.8802 4.50515 3.84708 4.516 3.83725C4.51928 3.83427 4.50633 3.84619 4.48105 3.86686C4.45582 3.8875 4.40857 3.92487 4.34292 3.96985C4.27573 4.01588 4.18524 4.07266 4.07308 4.13021C3.95804 4.18923 3.83474 4.24161 3.70475 4.28499L1.80525 -1.40639ZM0.199841 -0.279968C-0.992591 0.572835 -1.41231 1.77189 -1.52689 2.68968L4.42689 3.43297C4.41782 3.50565 4.38481 3.69908 4.26022 3.93967C4.12547 4.19986 3.92657 4.43129 3.69016 4.60037L0.199841 -0.279968ZM-1.55 3.06133C-1.55 4.25371 -1.25691 5.53536 -0.565852 6.65973L4.54585 3.51799C4.51691 3.4709 4.45 3.31075 4.45 3.06133H-1.55ZM-0.76797 6.26937C-0.508115 6.87646 -0.172404 7.36685 -0.0121108 7.60759L4.98211 4.28227C4.88583 4.13767 4.83564 4.06129 4.79395 3.99172C4.75746 3.93082 4.74775 3.90784 4.74797 3.90835L-0.76797 6.26937ZM0.00159442 7.62799C1.11675 9.27343 2.60204 10.6489 4.40186 11.61L7.22814 6.31738C6.32796 5.83668 5.56325 5.13959 4.96841 4.26187L0.00159442 7.62799ZM4.24128 11.5178C5.31424 12.1789 6.44376 12.4467 7.35302 12.5681L8.14698 6.62087C7.70624 6.56204 7.48576 6.4694 7.38872 6.40961L4.24128 11.5178ZM7.32522 12.5643C8.64381 12.7529 9.81345 12.236 10.5255 11.6656L6.77449 6.98269C6.964 6.83089 7.14627 6.74225 7.31468 6.68805C7.47859 6.6353 7.77786 6.56794 8.17478 6.62472L7.32522 12.5643ZM10.7726 11.4441C10.7963 11.4205 10.8502 11.3665 10.9301 11.2865C10.9433 11.2733 10.9468 11.2697 10.9607 11.2558C10.9739 11.2426 10.9554 11.2611 10.9687 11.2479C10.9709 11.2457 10.9745 11.2421 10.9767 11.2398C10.983 11.2335 10.9868 11.2297 10.9933 11.2233C11.0541 11.1623 10.9662 11.2504 11.0276 11.1888C11.0372 11.1793 11.0358 11.1807 11.0455 11.171C11.1537 11.0626 10.9554 11.2612 11.0637 11.1527C11.1216 11.0947 11.0807 11.1357 11.1406 11.0758C11.1442 11.0722 11.1419 11.0744 11.1455 11.0708C11.1508 11.0655 11.1453 11.0711 11.1506 11.0658C11.1594 11.0569 11.1467 11.0696 11.1556 11.0607C11.1633 11.053 11.1503 11.066 11.1581 11.0582C11.1585 11.0578 11.1589 11.0574 11.1594 11.0569C11.1598 11.0565 11.1602 11.0561 11.1606 11.0557C11.176 11.0403 11.1553 11.061 11.1708 11.0455C11.1838 11.0325 11.168 11.0483 11.181 11.0353C11.1975 11.0187 11.2057 11.0105 11.2226 10.9936L6.97735 6.7536C6.69489 7.03641 6.62981 7.10157 6.52735 7.20416L10.7726 11.4441ZM11.2226 10.9936C11.3537 10.8624 11.9097 10.3675 12.234 9.71827L6.86605 7.03767C6.8831 7.00353 6.91124 6.9493 6.94975 6.88413C6.9892 6.81738 7.03102 6.75349 7.07424 6.69328C7.1552 6.58051 7.22166 6.50816 7.2304 6.49861C7.23885 6.48938 7.23042 6.49896 7.17992 6.55016C7.13253 6.5982 7.06998 6.66085 6.97735 6.7536L11.2226 10.9936ZM12.234 9.71827C12.7453 8.6942 12.7453 7.47602 12.234 6.45194L6.86605 9.13254C6.53465 8.46891 6.53465 7.7013 6.86605 7.03767L12.234 9.71827ZM12.3964 6.84462C12.3932 6.83486 12.2992 6.52527 12.1033 6.19011C11.9198 5.87616 11.7183 5.65328 11.6121 5.54039C11.4361 5.35316 11.1653 5.10261 10.8783 4.83439L6.78168 9.21817C6.95426 9.37945 7.07027 9.48789 7.15501 9.56838C7.19635 9.60763 7.22279 9.63318 7.23952 9.64963C7.25722 9.66703 7.25448 9.66486 7.24037 9.64985C7.22425 9.6327 7.07337 9.47459 6.92357 9.21837C6.76138 8.94094 6.68435 8.68204 6.70359 8.73986L12.3964 6.84462ZM10.9526 4.90629C10.6624 4.61568 10.4563 4.4087 10.3207 4.28138C10.2519 4.21679 10.1094 4.0846 9.92423 3.95133C9.6906 3.7832 9.48531 3.68401 9.45298 3.66783L6.76702 9.03305C6.77592 9.03751 6.76467 9.03192 6.75091 9.02482C6.73438 9.0163 6.70514 9.00097 6.66876 8.98048C6.63128 8.95938 6.58956 8.93467 6.54488 8.90623C6.50034 8.87788 6.45851 8.84941 6.41952 8.82135C6.34313 8.76637 6.28692 8.71962 6.2564 8.69341C6.227 8.66815 6.21065 8.6526 6.21431 8.65604C6.21702 8.65858 6.2283 8.66928 6.25282 8.69323C6.27674 8.71659 6.30812 8.74755 6.35006 8.78921C6.43488 8.87347 6.54804 8.98676 6.70735 9.14628L10.9526 4.90629ZM9.45298 3.66783C8.29744 3.08934 6.98387 3.19381 5.93509 3.82387L9.02491 8.96712C8.42613 9.32684 7.56256 9.43132 6.76702 9.03305L9.45298 3.66783ZM5.81446 3.9003C5.38197 4.18899 5.02629 4.56192 4.95235 4.63595L9.19765 8.87594C9.21499 8.85857 9.22909 8.84445 9.24273 8.83087C9.25607 8.81758 9.267 8.80676 9.27646 8.79749C9.29603 8.77831 9.30458 8.77037 9.30605 8.76902C9.30758 8.76761 9.29536 8.77896 9.27195 8.79801C9.24887 8.81678 9.20606 8.85029 9.14554 8.89068L5.81446 3.9003ZM4.95235 4.63595L4.72735 4.86123L8.97265 9.10122L9.19765 8.87594L4.95235 4.63595ZM4.72735 4.86123C5.21344 4.37454 5.75121 4.20364 6.10591 4.14757C6.46836 4.09027 7.01697 4.09285 7.60798 4.38873L4.92202 9.75395C5.69303 10.1399 6.46664 10.1651 7.04284 10.074C7.61129 9.98409 8.35156 9.72308 8.97265 9.10122L4.72735 4.86123ZM7.75482 4.46741C7.27508 4.19293 6.85019 3.76771 6.57553 3.28645L1.36447 6.26048C2.16981 7.67159 3.36492 8.86839 4.77518 9.67527L7.75482 4.46741ZM6.75591 3.6605C7.04341 4.38015 6.95177 5.19008 6.51211 5.85039L1.51789 2.52508C0.898228 3.45573 0.716589 4.71622 1.18409 5.88644L6.75591 3.6605ZM6.13765 6.30773L6.36265 6.08245L2.11735 1.84246L1.89235 2.06774L6.13765 6.30773ZM6.36265 6.08245C6.55604 5.88881 6.79685 5.63976 7.0034 5.35776C7.29853 4.9548 7.44588 4.59626 7.53641 4.32434L1.84359 2.42911C1.84807 2.41565 1.88586 2.30081 1.95603 2.15725C2.0287 2.00856 2.10447 1.89218 2.16285 1.81246C2.21389 1.74277 2.24653 1.70829 2.23363 1.72251C2.22205 1.73528 2.18826 1.77147 2.11735 1.84246L6.36265 6.08245ZM7.18711 5.03938C8.02371 3.78291 7.80927 2.41252 7.37395 1.5408L2.00605 4.2214C1.75073 3.71013 1.53629 2.7002 2.19289 1.71406L7.18711 5.03938ZM7.37395 1.5408C7.13872 1.06975 6.83398 0.751465 6.72045 0.631103C6.58725 0.489894 6.38886 0.291739 6.13765 0.0402071L1.89235 4.28019C2.02904 4.41705 2.13087 4.51901 2.2106 4.59951C2.24993 4.63921 2.28103 4.67081 2.30598 4.69641C2.33121 4.72228 2.3468 4.73858 2.3558 4.74812C2.36521 4.7581 2.3622 4.75517 2.3516 4.74318C2.3412 4.73142 2.31535 4.70177 2.2814 4.65851C2.24622 4.61368 2.19936 4.55048 2.14814 4.47096C2.12254 4.43121 2.09728 4.38961 2.07265 4.34627C2.04799 4.30287 2.02585 4.26105 2.00605 4.2214L7.37395 1.5408ZM6.13765 0.0402071C5.81601 -0.281829 5.52289 -0.568099 5.26051 -0.778258C5.10363 -0.903919 4.8831 -1.06428 4.59861 -1.2067C4.32892 -1.34171 4.05942 -1.42319 4.10975 -1.40639L2.21025 4.28499C2.21978 4.28817 2.22838 4.29101 2.23192 4.29218C2.23696 4.29384 2.23619 4.29359 2.23468 4.29309C2.23136 4.29198 2.21024 4.28494 2.18145 4.27446C2.11553 4.25046 2.0212 4.21287 1.91264 4.15852C1.69565 4.04988 1.55387 3.94021 1.50949 3.90467C1.48692 3.88659 1.47863 3.87878 1.48895 3.88797C1.49874 3.89668 1.51945 3.91548 1.55439 3.94853C1.6259 4.01614 1.73258 4.12022 1.89235 4.28019L6.13765 0.0402071ZM5.28265 -0.680694C4.82839 -1.13552 4.26697 -1.42337 3.67593 -1.54173C3.44473 -1.58802 3.25494 -1.59884 3.15982 -1.60265C3.07008 -1.60624 2.98547 -1.60576 2.98 -1.60576V4.39424C3.01953 4.39424 2.9743 4.39473 2.91971 4.39254C2.85975 4.39014 2.70089 4.38214 2.49782 4.34148C2.2776 4.29738 2.00678 4.21563 1.72051 4.06389C1.43413 3.91208 1.20847 3.73062 1.03735 3.55929L5.28265 -0.680694Z" fill="white" mask="url(#path-1-inside-1_239_311)"/>
</svg>
