<svg width="26" height="26" viewBox="0 0 26 26" fill="none" xmlns="http://www.w3.org/2000/svg">
<path d="M6.9375 8.57692C6.9375 8.40351 7.00664 8.2372 7.12971 8.11458C7.25278 7.99196 7.4197 7.92308 7.59375 7.92308H16.7812C16.9553 7.92308 17.1222 7.99196 17.2453 8.11458C17.3684 8.2372 17.4375 8.40351 17.4375 8.57692C17.4375 8.75033 17.3684 8.91664 17.2453 9.03926C17.1222 9.16188 16.9553 9.23077 16.7812 9.23077H7.59375C7.4197 9.23077 7.25278 9.16188 7.12971 9.03926C7.00664 8.91664 6.9375 8.75033 6.9375 8.57692ZM14.1562 11.8462C13.9822 11.8462 13.8153 11.915 13.6922 12.0377C13.5691 12.1603 13.5 12.3266 13.5 12.5C13.5 12.6734 13.5691 12.8397 13.6922 12.9623C13.8153 13.085 13.9822 13.1538 14.1562 13.1538H16.7812C16.9553 13.1538 17.1222 13.085 17.2453 12.9623C17.3684 12.8397 17.4375 12.6734 17.4375 12.5C17.4375 12.3266 17.3684 12.1603 17.2453 12.0377C17.1222 11.915 16.9553 11.8462 16.7812 11.8462H14.1562ZM13.5 16.4231C13.5 16.2497 13.5691 16.0834 13.6922 15.9607C13.8153 15.8381 13.9822 15.7692 14.1562 15.7692H16.7812C16.9553 15.7692 17.1222 15.8381 17.2453 15.9607C17.3684 16.0834 17.4375 16.2497 17.4375 16.4231C17.4375 16.5965 17.3684 16.7628 17.2453 16.8854C17.1222 17.008 16.9553 17.0769 16.7812 17.0769H14.1562C13.9822 17.0769 13.8153 17.008 13.6922 16.8854C13.5691 16.7628 13.5 16.5965 13.5 16.4231ZM7.59375 11.8462C7.4197 11.8462 7.25278 11.915 7.12971 12.0377C7.00664 12.1603 6.9375 12.3266 6.9375 12.5V16.4231C6.9375 16.5965 7.00664 16.7628 7.12971 16.8854C7.25278 17.008 7.4197 17.0769 7.59375 17.0769H11.5312C11.7053 17.0769 11.8722 17.008 11.9953 16.8854C12.1184 16.7628 12.1875 16.5965 12.1875 16.4231V12.5C12.1875 12.3266 12.1184 12.1603 11.9953 12.0377C11.8722 11.915 11.7053 11.8462 11.5312 11.8462H7.59375ZM8.25 15.7692V13.1538H10.875V15.7692H8.25ZM3 6.61538C3 5.92174 3.27656 5.25651 3.76884 4.76603C4.26113 4.27555 4.92881 4 5.625 4H18.75C19.4462 4 20.1139 4.27555 20.6062 4.76603C21.0984 5.25651 21.375 5.92174 21.375 6.61538V7.92308C22.0712 7.92308 22.7389 8.19863 23.2312 8.68911C23.7234 9.17958 24 9.84482 24 10.5385V17.7308C24 18.5978 23.6543 19.4294 23.0389 20.0425C22.4236 20.6556 21.589 21 20.7188 21H6.28125C5.41101 21 4.57641 20.6556 3.96106 20.0425C3.3457 19.4294 3 18.5978 3 17.7308V6.61538ZM20.0625 6.61538C20.0625 6.26856 19.9242 5.93595 19.6781 5.69071C19.4319 5.44547 19.0981 5.30769 18.75 5.30769H5.625C5.2769 5.30769 4.94306 5.44547 4.69692 5.69071C4.45078 5.93595 4.3125 6.26856 4.3125 6.61538V17.7308C4.3125 18.251 4.51992 18.7499 4.88913 19.1178C5.25835 19.4856 5.7591 19.6923 6.28125 19.6923H20.7188C21.2409 19.6923 21.7417 19.4856 22.1109 19.1178C22.4801 18.7499 22.6875 18.251 22.6875 17.7308V10.5385C22.6875 10.1916 22.5492 9.85902 22.3031 9.61378C22.0569 9.36854 21.7231 9.23077 21.375 9.23077V17.7308C21.375 17.9042 21.3059 18.0705 21.1828 18.1931C21.0597 18.3157 20.8928 18.3846 20.7188 18.3846C20.5447 18.3846 20.3778 18.3157 20.2547 18.1931C20.1316 18.0705 20.0625 17.9042 20.0625 17.7308V6.61538Z" fill="#02E502"/>
</svg>
