<svg width="399" height="50" viewBox="0 0 399 50" fill="none" xmlns="http://www.w3.org/2000/svg">
<g clip-path="url(#clip0_217_77)">
<path d="M370 6C369.45 6 369 6.45 369 7C369 7.55 369.45 8 370 8C370.55 8 371 7.55 371 7C371 6.45 370.55 6 370 6ZM370 7.35C369.8 7.35 369.65 7.2 369.65 7C369.65 6.8 369.8 6.65 370 6.65C370.2 6.65 370.35 6.8 370.35 7C370.35 7.2 370.2 7.35 370 7.35Z" fill="#02E602"/>
<path d="M394 8C394.55 8 395 7.55 395 7C395 6.45 394.55 6 394 6C393.45 6 393 6.45 393 7C393 7.55 393.45 8 394 8ZM394 6.65C394.2 6.65 394.35 6.8 394.35 7C394.35 7.2 394.2 7.35 394 7.35C393.8 7.35 393.65 7.2 393.65 7C393.65 6.8 393.8 6.65 394 6.65Z" fill="#02E602"/>
<path d="M371 29C371 28.45 370.55 28 370 28C369.45 28 369 28.45 369 29C369 29.55 369.45 30 370 30C370.55 30 371 29.55 371 29ZM369.65 29C369.65 28.8 369.8 28.65 370 28.65C370.2 28.65 370.35 28.8 370.35 29C370.35 29.2 370.2 29.35 370 29.35C369.8 29.35 369.65 29.2 369.65 29Z" fill="#02E602"/>
<path d="M394 28C393.45 28 393 28.45 393 29C393 29.55 393.45 30 394 30C394.55 30 395 29.55 395 29C395 28.45 394.55 28 394 28ZM394 29.35C393.8 29.35 393.65 29.2 393.65 29C393.65 28.8 393.8 28.65 394 28.65C394.2 28.65 394.35 28.8 394.35 29C394.35 29.2 394.2 29.35 394 29.35Z" fill="#02E602"/>
<path d="M387.153 13.9L393.298 8.39003C393.511 8.47545 393.724 8.51817 393.98 8.51817L397.394 12.8749C397.607 13.1311 397.906 13.2593 398.204 13.2593C398.375 13.2593 398.546 13.2166 398.674 13.1311C398.844 13.003 399.314 12.5759 398.674 11.4653L397.564 9.50056C397.266 8.90258 396.967 8.3046 396.668 8.04833L395.815 7.19408C395.9 6.98051 395.9 6.80966 395.9 6.5961C395.9 5.52828 395.047 4.67403 393.98 4.67403C393.895 4.67403 393.81 4.67403 393.682 4.71674L390.268 0.360054C389.927 -0.0243598 389.372 -0.109785 388.988 0.146491C388.817 0.274629 388.348 0.701755 388.988 1.81228L390.098 3.77706C390.396 4.33233 390.695 4.97302 390.994 5.22929L392.06 6.29711C392.018 6.42525 392.018 6.55339 392.018 6.68152C392.018 6.72424 392.018 6.72424 392.018 6.76695L387.111 9.71412C386.684 8.21918 385.447 7.06594 383.953 6.76695V6.68152V6.63881C383.825 5.99812 383.271 5.57099 382.588 5.57099H380.369C379.687 5.57099 379.089 5.99812 379.004 6.63881V6.68152V6.76695C377.468 7.06594 376.273 8.21918 375.847 9.71412L371.238 6.89509C371.238 6.80966 371.238 6.76695 371.238 6.68152C371.238 6.46796 371.196 6.2544 371.153 6.08355L372.006 5.22929C372.262 4.97302 372.604 4.33233 372.903 3.77706L374.012 1.81228C374.609 0.744468 374.14 0.274629 374.012 0.146491C373.628 -0.109785 373.116 -0.0243599 372.732 0.402766L369.361 4.75946C369.361 4.75946 369.361 4.75946 369.318 4.75946C368.252 4.75946 367.398 5.61371 367.398 6.68152C367.398 6.80966 367.398 6.9378 367.441 7.06594L366.374 8.13375C366.118 8.39003 365.777 8.98801 365.478 9.58598L364.369 11.5508C363.772 12.6186 364.241 13.0884 364.369 13.2166C364.497 13.302 364.668 13.3447 364.838 13.3447C365.137 13.3447 365.436 13.2166 365.649 12.9603L369.062 8.60359C369.148 8.60359 369.233 8.6463 369.318 8.6463C369.489 8.6463 369.66 8.60359 369.788 8.60359L375.847 14.0281L376.145 20.8194L369.745 26.4148C369.574 26.372 369.446 26.372 369.276 26.372C369.19 26.372 369.105 26.372 369.02 26.4148L365.606 22.0154C365.265 21.6309 364.71 21.5455 364.326 21.8018C364.156 21.9299 363.686 22.3571 364.326 23.4676L365.436 25.4324C365.734 26.0303 366.033 26.6283 366.332 26.8846L367.398 27.9524C367.356 28.0806 367.356 28.2087 367.356 28.3368C367.356 29.4046 368.209 30.2589 369.276 30.2589C369.276 30.2589 369.276 30.2589 369.318 30.2589L372.689 34.6156C372.903 34.8719 373.201 35 373.5 35C373.671 35 373.841 34.9573 373.969 34.8719C374.14 34.7437 374.609 34.3166 373.969 33.2061L372.86 31.2413C372.561 30.686 372.262 30.0453 371.964 29.7891L371.11 28.9348C371.153 28.764 371.196 28.5504 371.196 28.3368C371.196 28.2514 371.196 28.166 371.196 28.1233L376.529 24.8771C376.999 25.7741 377.937 26.372 379.004 26.372H383.996C385.063 26.372 386.001 25.7741 386.471 24.8771L391.804 28.1233C391.804 28.2087 391.804 28.2941 391.804 28.3368C391.804 28.5504 391.847 28.764 391.89 28.9348L391.036 29.7891C390.78 30.0453 390.439 30.686 390.14 31.2413L389.031 33.2061C388.433 34.2739 388.903 34.7437 389.031 34.8719C389.159 34.9573 389.329 35 389.5 35C389.799 35 390.098 34.8719 390.311 34.6156L393.682 30.2589C394.748 30.2589 395.602 29.4046 395.602 28.3368C395.602 28.1233 395.559 27.9097 395.516 27.7389L396.37 26.8846C396.626 26.6283 396.967 26.0303 397.266 25.4324L398.375 23.4676C398.972 22.3998 398.503 21.9299 398.375 21.8018C397.991 21.5455 397.479 21.6309 397.095 22.0581L393.724 26.4148C393.554 26.4148 393.383 26.4575 393.255 26.4575L386.897 20.7767L387.153 13.9ZM396.284 8.47545C396.498 8.68902 396.924 9.50056 397.052 9.75683V9.79955L398.162 11.7643C398.46 12.2769 398.46 12.6186 398.29 12.704C398.162 12.7894 397.948 12.7467 397.778 12.5759L394.578 8.47545C394.962 8.34732 395.303 8.09104 395.516 7.79205L396.284 8.47545ZM395.346 6.5961C395.346 7.36493 394.706 7.9629 393.98 7.9629C393.212 7.9629 392.615 7.32221 392.615 6.5961C392.615 5.82727 393.255 5.22929 393.98 5.22929C394.748 5.22929 395.346 5.82727 395.346 6.5961ZM391.378 4.75946C391.164 4.54589 390.738 3.73435 390.61 3.47808V3.43536L389.5 1.47058C389.201 0.958031 389.202 0.61633 389.372 0.530904C389.5 0.445479 389.714 0.488192 389.884 0.659042L393.127 4.84488C392.786 5.01573 392.487 5.27201 392.274 5.61371L391.378 4.75946ZM392.146 7.23679C392.274 7.57849 392.487 7.87748 392.786 8.13375L387.196 13.1311L387.281 10.7819C387.281 10.6111 387.281 10.3975 387.239 10.2267L392.146 7.23679ZM380.369 6.04083H382.588C382.929 6.04083 383.313 6.21168 383.399 6.5961C383.313 6.5961 383.228 6.5961 383.143 6.5961H379.815C379.729 6.5961 379.644 6.5961 379.559 6.5961C379.644 6.21168 380.028 6.04083 380.369 6.04083ZM373.073 0.659042C373.244 0.488192 373.5 0.445479 373.585 0.530904C373.713 0.61633 373.713 0.958031 373.457 1.47058L372.348 3.43536C372.348 3.43536 372.348 3.43536 372.348 3.47808C372.22 3.77706 371.793 4.54589 371.58 4.80217L370.812 5.48557C370.598 5.14387 370.257 4.93031 369.873 4.80217L373.073 0.659042ZM365.18 12.5332C365.009 12.704 364.753 12.7467 364.668 12.6613C364.54 12.5759 364.54 12.2342 364.796 11.7216L365.905 9.75683V9.71412C366.033 9.41513 366.46 8.6463 366.673 8.39003L367.569 7.49306C367.782 7.83476 368.038 8.09104 368.422 8.26189L365.18 12.5332ZM367.868 6.5961C367.868 5.82727 368.508 5.22929 369.233 5.22929C370.001 5.22929 370.598 5.86998 370.598 6.5961C370.598 7.36493 369.958 7.9629 369.233 7.9629C368.508 8.00561 367.868 7.36493 367.868 6.5961ZM370.3 8.26189C370.641 8.04833 370.897 7.74934 371.025 7.40764L375.676 10.2267C375.633 10.3975 375.633 10.6111 375.633 10.7819L375.719 13.1311L370.3 8.26189ZM366.673 26.4148C366.46 26.2012 366.033 25.3897 365.905 25.1334V25.0907L364.796 23.1259C364.497 22.6133 364.497 22.2716 364.668 22.1862C364.796 22.1008 365.009 22.1435 365.18 22.3143L368.422 26.5002C368.081 26.671 367.782 26.9273 367.569 27.269L366.673 26.4148ZM367.868 28.2941C367.868 27.5253 368.508 26.9273 369.233 26.9273C370.001 26.9273 370.598 27.568 370.598 28.2941C370.598 29.0202 369.958 29.6609 369.233 29.6609C368.508 29.6609 367.868 29.0629 367.868 28.2941ZM371.58 30.1308C371.793 30.3443 372.22 31.1559 372.348 31.4121V31.4549L373.457 33.4196C373.756 33.9322 373.756 34.2739 373.585 34.3593C373.457 34.4447 373.244 34.402 373.073 34.2312L369.873 30.1308C370.257 30.0026 370.598 29.7463 370.812 29.4474L371.58 30.1308ZM371.025 27.4826C370.854 27.1409 370.598 26.8419 370.3 26.6283L376.103 21.4174L376.188 23.553C376.188 23.8093 376.231 24.0656 376.273 24.2791L371.025 27.4826ZM379.303 25.7741L379.516 24.749C379.601 24.4073 379.943 24.1083 380.369 24.1083H382.588C382.972 24.1083 383.356 24.3646 383.441 24.7063L383.655 25.7741H379.303ZM384.209 25.7741L383.996 24.6208C383.825 24.0229 383.271 23.5957 382.631 23.5957H380.412C379.772 23.5957 379.175 24.0229 379.047 24.6635L378.833 25.8168C377.724 25.6886 376.828 24.749 376.828 23.5957L376.401 13.8145L376.273 10.8246C376.273 10.6111 376.316 10.3975 376.316 10.184C376.615 8.51817 378.108 7.23679 379.857 7.23679H383.185C384.935 7.23679 386.428 8.51817 386.727 10.184C386.769 10.3975 386.769 10.6111 386.769 10.8246L386.215 23.6384C386.215 24.7063 385.319 25.6459 384.209 25.7741ZM389.884 34.2312C389.714 34.402 389.458 34.4447 389.372 34.3593C389.244 34.2739 389.244 33.9322 389.5 33.4196L390.61 31.4549C390.61 31.4549 390.61 31.4548 390.61 31.4121C390.738 31.1131 391.164 30.3443 391.378 30.088L392.103 29.3619C392.316 29.7036 392.658 29.9172 393.042 30.0453L389.884 34.2312ZM393.682 29.6609C392.914 29.6609 392.316 29.0202 392.316 28.2941C392.316 27.568 392.956 26.9273 393.682 26.9273C394.45 26.9273 395.047 27.568 395.047 28.2941C395.047 29.0202 394.45 29.6609 393.682 29.6609ZM397.522 22.3571C397.692 22.1862 397.948 22.1435 398.034 22.2289C398.162 22.3143 398.162 22.656 397.906 23.1686L396.796 25.1334V25.1761C396.668 25.4751 396.242 26.2439 396.028 26.5002L395.303 27.2263C395.09 26.8846 394.748 26.671 394.364 26.5429L397.522 22.3571ZM392.658 26.6283C392.316 26.8419 392.06 27.1409 391.932 27.4826L386.684 24.2791C386.769 24.0656 386.769 23.8093 386.769 23.553L386.855 21.4174L392.658 26.6283Z" fill="#02E602"/>
<path d="M384.578 9H379.422C378.622 9 378 9.63025 378 10.3866V12.6134C378 13.3697 378.622 14 379.422 14H384.578C385.378 14 386 13.3697 386 12.6134V10.3866C386 9.63025 385.378 9 384.578 9ZM385.422 12.6555C385.422 13.1176 385.022 13.4958 384.578 13.4958H379.422C378.933 13.4958 378.578 13.1176 378.578 12.6555V10.4286C378.578 9.96639 378.978 9.58824 379.422 9.58824H384.578C385.067 9.58824 385.422 9.96639 385.422 10.4286V12.6555Z" fill="#02E602"/>
<path d="M106.962 50C106.877 50 106.793 50 106.708 50L106.751 49.1538C108.27 49.1961 109.874 48.8576 111.478 48.1383L111.816 48.8999C110.17 49.6192 108.566 50 106.962 50ZM101.727 48.4768C100.292 47.5459 99.0682 46.2343 98.1818 44.6264L98.9416 44.2033C99.7436 45.6419 100.883 46.8689 102.192 47.7575L101.727 48.4768ZM116.037 45.8535L115.404 45.3034C116.501 44.0764 117.261 42.6378 117.599 41.0299L118.443 41.1992C118.063 42.9763 117.261 44.5418 116.037 45.8535ZM96.7888 39.5913C96.7888 39.4644 96.7888 39.3375 96.7888 39.2105C96.7888 37.5604 97.1687 35.9525 97.8863 34.4716L98.6461 34.8524C97.9707 36.2487 97.633 37.6873 97.633 39.2105C97.633 39.3375 97.633 39.4221 97.633 39.549L96.7888 39.5913ZM117.641 36.1641C117.345 34.5986 116.797 33.033 115.995 31.5098L116.754 31.129C117.599 32.7368 118.147 34.387 118.485 35.9948L117.641 36.1641ZM101.643 31.0444L101.094 30.4097C101.854 29.775 102.698 29.1827 103.627 28.6749C104.218 28.3364 104.893 28.0402 105.526 27.7441L105.864 28.5057C105.231 28.7595 104.598 29.0557 104.049 29.3942C103.163 29.902 102.361 30.452 101.643 31.0444ZM225.995 29.7327C224.602 29.7327 223.209 29.7327 221.817 29.7327V28.8865C223.209 28.8865 224.602 28.8865 225.995 28.8865H226.882V29.7327H225.995ZM231.905 29.6904V28.8442C233.593 28.8442 235.282 28.8019 236.97 28.7595V29.6058C235.282 29.6481 233.593 29.6481 231.905 29.6904ZM216.709 29.6481C215.021 29.6058 213.332 29.5635 211.644 29.5212L211.686 28.6749C213.374 28.7172 215.063 28.7595 216.751 28.8019L216.709 29.6481ZM242.035 29.4365L241.993 28.5903C243.724 28.548 245.412 28.4634 247.058 28.3787L247.101 29.225C245.454 29.3096 243.766 29.3942 242.035 29.4365ZM206.579 29.3519C204.89 29.3096 203.202 29.225 201.513 29.1403L201.555 28.2941C203.244 28.3787 204.932 28.4211 206.621 28.5057L206.579 29.3519ZM252.166 28.9711L252.124 28.1249C253.812 28.0402 255.501 27.9133 257.189 27.7864L257.231 28.6326C255.585 28.7595 253.897 28.8865 252.166 28.9711ZM196.448 28.9288C194.76 28.8442 193.071 28.7595 191.383 28.6749L191.425 27.8287C193.113 27.9133 194.802 27.9979 196.49 28.0826L196.448 28.9288ZM186.317 28.3787C185.009 28.2941 183.658 28.2095 182.35 28.1249L181.252 28.0402L181.294 27.194L182.392 27.2786C183.7 27.3633 185.051 27.4479 186.36 27.5325L186.317 28.3787ZM262.296 28.2518L262.212 27.4056C263.9 27.2786 265.589 27.1094 267.235 26.9401L267.319 27.7864C265.673 27.9556 263.985 28.0826 262.296 28.2518ZM176.229 27.7018C174.541 27.5748 172.852 27.4479 171.164 27.3209L171.248 26.4747C172.937 26.6017 174.625 26.7286 176.314 26.8555L176.229 27.7018ZM113.167 27.4479C112.955 27.2363 112.744 26.9825 112.533 26.7709C111.858 26.8978 111.225 26.9825 110.634 27.1094L110.465 26.2632C110.887 26.1785 111.309 26.0939 111.774 26.0093C111.774 26.0093 111.774 26.0093 111.731 26.0093C111.014 25.3746 110.212 24.7399 109.41 24.1476L109.874 23.4706C110.718 24.0629 111.563 24.6976 112.28 25.3746C112.449 25.5439 112.618 25.7131 112.787 25.84C113.589 25.7131 114.475 25.6285 115.488 25.5015L115.573 26.3478C114.855 26.4324 114.18 26.517 113.546 26.6017C113.631 26.6863 113.715 26.7709 113.757 26.8555L113.167 27.4479ZM272.385 27.2363L272.3 26.3901C273.989 26.1785 275.677 26.0093 277.323 25.7977L277.45 26.644C275.762 26.8555 274.073 27.0671 272.385 27.2363ZM166.099 26.9401C164.41 26.8132 162.722 26.6863 161.033 26.5593L161.076 25.7131C162.764 25.84 164.452 25.967 166.141 26.0939L166.099 26.9401ZM156.01 26.2208C154.322 26.0939 152.633 26.0093 150.945 25.9247L150.987 25.0784C152.676 25.1631 154.364 25.29 156.052 25.3746L156.01 26.2208ZM282.431 25.9247L282.304 25.0784C283.993 24.8246 285.639 24.613 287.327 24.3591L287.454 25.2054C285.808 25.4592 284.119 25.7131 282.431 25.9247ZM120.638 25.9247L120.596 25.0784C122.242 24.9515 123.93 24.8669 125.661 24.7823L125.703 25.6285C123.972 25.7131 122.284 25.7977 120.638 25.9247ZM145.922 25.6708C144.191 25.5862 142.503 25.5439 140.857 25.5015V24.6553C142.503 24.6976 144.191 24.7399 145.922 24.8246V25.6708ZM130.726 25.4592V24.613C132.372 24.5707 134.103 24.5707 135.791 24.5707V25.4169C134.103 25.4169 132.372 25.4169 130.726 25.4592ZM292.477 24.5284L292.35 23.6821C294.039 23.4283 295.685 23.2167 297.373 22.9628L297.5 23.8091C295.854 24.063 294.165 24.3168 292.477 24.5284ZM302.523 23.0898L302.396 22.2436C304.169 21.9474 305.816 21.6935 307.377 21.3973L307.504 22.2436C305.942 22.5397 304.296 22.7936 302.523 23.0898ZM105.104 21.6935C103.669 21.0165 102.107 20.3818 100.461 19.8318L100.714 19.0279C102.403 19.5779 104.007 20.2549 105.442 20.9319L105.104 21.6935ZM0.168842 21.355L0 20.5511C1.64621 20.1703 3.29242 19.7895 4.93864 19.451L5.10748 20.2972C3.46127 20.5934 1.81505 20.9742 0.168842 21.355ZM312.527 21.3127L312.358 20.4665C314.047 20.128 315.735 19.7895 317.297 19.4087L317.466 20.2549C315.904 20.6357 314.215 20.9742 312.527 21.3127ZM10.0883 19.2817L9.91948 18.4355C11.5657 18.1393 13.2541 17.8431 14.9003 17.547L15.027 18.3932C13.423 18.6894 11.7345 18.9856 10.0883 19.2817ZM322.404 19.0279L322.193 18.2239C323.839 17.8008 325.486 17.3354 327.047 16.8277L327.301 17.6316C325.739 18.1393 324.093 18.6047 322.404 19.0279ZM95.6069 18.4355C94.0451 18.0547 92.3989 17.7162 90.6683 17.42L90.7949 16.5738C92.5256 16.87 94.214 17.2085 95.7758 17.5893L95.6069 18.4355ZM20.05 17.6739L19.9234 16.8277C21.6118 16.5738 23.3002 16.3622 24.9887 16.193L25.0731 17.0392C23.4269 17.2085 21.7384 17.42 20.05 17.6739ZM85.6874 16.743C84.0834 16.5738 82.395 16.4045 80.6644 16.2353L80.7488 15.3891C82.5217 15.516 84.2101 15.6852 85.8141 15.8968L85.6874 16.743ZM30.0961 16.4892L30.0117 15.6429C31.7001 15.4737 33.3886 15.3467 35.077 15.2198L35.1192 16.066C33.473 16.1507 31.7846 16.3199 30.0961 16.4892ZM332.113 16.0237L331.817 15.2198C333.421 14.6275 334.983 14.0351 336.503 13.4004L336.84 14.162C335.321 14.839 333.717 15.4314 332.113 16.0237ZM75.5991 15.9391C74.0373 15.8545 72.3911 15.8122 70.5339 15.7276L70.5761 14.8813C72.4333 14.9236 74.0795 15.0083 75.6413 15.0929L75.5991 15.9391ZM40.1845 15.7276L40.1422 14.8813C41.8307 14.7967 43.5191 14.7121 45.2075 14.6698L45.2497 15.516C43.5613 15.5583 41.8729 15.6429 40.1845 15.7276ZM65.4686 15.6006L64.2445 15.5583C62.8937 15.516 61.6274 15.516 60.3611 15.4737V14.6275C61.5852 14.6698 62.8937 14.6698 64.2023 14.7121L65.4264 14.7544L65.4686 15.6006ZM55.338 15.3891C53.6496 15.3891 51.9612 15.3891 50.2728 15.3891V14.5428C51.9612 14.5428 53.6496 14.5428 55.338 14.5428V15.3891ZM341.483 12.0888L341.104 11.3271C342.623 10.6078 344.143 9.80392 345.578 9L346 9.7193C344.523 10.5232 343.003 11.3271 341.483 12.0888Z" fill="#02E602"/>
</g>
<defs>
<clipPath id="clip0_217_77">
<rect width="399" height="50" fill="white"/>
</clipPath>
</defs>
</svg>
